<svg xmlns="http://www.w3.org/2000/svg" viewBox="0 0 72 72"><defs><style>.a{fill:#1a315b;}</style></defs><path class="a" d="M36,72A36,36,0,1,1,72,36,36.041,36.041,0,0,1,36,72ZM36,.975A35.013,35.013,0,1,0,71.025,36,35.081,35.081,0,0,0,36,.975Z"/><path class="a" d="M79.411,79.376a.439.439,0,0,1-.1-.125c-.025-.05-.075-.075-.1-.125s-.075-.075-.1-.125a.345.345,0,0,1-.075-.1c-.025-.025-.05-.075-.075-.1s-.05-.075-.075-.1-.05-.075-.075-.1a.189.189,0,0,1-.05-.1c-.025-.025-.05-.05-.05-.075a.19.19,0,0,1-.05-.1c-.025-.025-.025-.075-.05-.1-.025-.05-.05-.075-.05-.125a1.219,1.219,0,0,1-.075-.175,1148.456,1148.456,0,0,1-.05-.2c0-.025-.025-.075-.025-.1s-.025-.075-.025-.1-.025-.075-.025-.1-.025-.075-.025-.1-.025-.075-.025-.1a.15.15,0,0,0-.025-.1v-.275a3.123,3.123,0,0,1,.2-1.25c.925-2.6,4.7-4.15,8.475-3.475,2.95.525,5,2.275,5.325,4.25h1.225V75.7h3.3v-.925h3.4v4.075h1.375a1.2,1.2,0,0,1,1.2,1.2v4.775a.092.092,0,0,1-.025.075c0,.025,0,.025-.025.05a.087.087,0,0,1-.025.05c0,.025-.025.025-.025.05s-.025.025-.025.05-.025.025-.025.05-.025.025-.025.05-.025.025-.025.05-.025.025-.025.05-.025.025-.025.05-.025.025-.025.05l-.05.05c-.025,0-.025.025-.05.025l-.05.05c-.025,0-.025.025-.05.025s-.025.025-.05.025-.025.025-.05.025-.025.025-.05.025-.025.025-.05.025a.087.087,0,0,0-.05.025c-.025,0-.025,0-.05.025-.025,0-.05.025-.075.025h-.05c-.025,0-.05.025-.075.025h-.1l.4,1.35c5.3,1.275,9.175,5.35,9.175,10.2a3.349,3.349,0,0,1-.025.5v.15c0,.125-.025.25-.025.375a.225.225,0,0,1-.025.125c-.025.15-.05.325-.075.475,0,.025-.025.075-.025.1l-.075.375c0,.05-.025.1-.025.15-.025.125-.075.25-.1.375,0,.025-.025.075-.025.1-.05.15-.1.3-.15.425-.025.05-.025.1-.05.15-.05.1-.075.2-.125.3l-.075.15c-.05.125-.125.25-.175.375-.025.05-.05.075-.075.125-.05.1-.125.225-.175.325a1.086,1.086,0,0,0-.1.175c-.05.075-.1.175-.15.25-.025.05-.075.1-.1.15a1.775,1.775,0,0,1-.25.35c-.05.05-.075.1-.125.15a1.374,1.374,0,0,1-.175.225c-.05.05-.1.125-.15.175a1.252,1.252,0,0,1-.175.2,2.255,2.255,0,0,1-.225.25,1.509,1.509,0,0,1-.2.2,1.155,1.155,0,0,1-.175.175l-.15.15-.2.2c-.05.05-.1.075-.15.125-.125.125-.275.225-.4.35-.05.025-.075.075-.125.1a1.517,1.517,0,0,1-.25.175c-.05.025-.075.075-.125.1a7.93,7.93,0,0,1-.9.575c-.025.025-.075.05-.1.075-.1.05-.2.125-.3.175-.025.025-.075.025-.1.05-.325.175-.675.35-1.025.5-.025.025-.075.025-.125.05-.125.05-.225.1-.35.15h0v1.225H93.061v-1.225h.175c-4.325-1.7-7.325-5.35-7.325-9.6,0-4.85,3.875-8.925,9.175-10.2l.5-1.35a1.2,1.2,0,0,1-1.2-1.2V79.976a1.2,1.2,0,0,1,1.2-1.2h1.175v-.45h-3.3V77.2h-1.25a.15.15,0,0,1-.025.1.189.189,0,0,1-.025.1.588.588,0,0,1-.05.2c0,.025-.025.05-.025.075-.025.1-.05.175-.075.275-.925,2.6-4.7,4.15-8.475,3.475-.1-.025-.225-.05-.325-.075-.025,0-.075-.025-.1-.025-.075-.025-.15-.025-.225-.05-.05,0-.075-.025-.125-.025-.075-.025-.125-.025-.2-.05-.05,0-.075-.025-.125-.025a.588.588,0,0,0-.2-.05c-.025,0-.075-.025-.1-.025l-.225-.075c-.025,0-.05-.025-.075-.025-.1-.025-.175-.075-.275-.1-.025,0-.05-.025-.075-.05-.05-.025-.125-.05-.175-.075-.025-.025-.075-.025-.1-.05l-.15-.075c-.025-.025-.075-.025-.1-.05l-.15-.075a.19.19,0,0,0-.1-.05.523.523,0,0,1-.15-.1c-.025-.025-.05-.025-.075-.05l-.225-.15c-.025-.025-.05-.025-.075-.05-.05-.025-.1-.075-.15-.1a.345.345,0,0,0-.1-.075.439.439,0,0,1-.125-.1.345.345,0,0,0-.1-.075c-.025-.025-.075-.05-.1-.1a.345.345,0,0,0-.1-.075l-.1-.1C79.461,79.426,79.436,79.4,79.411,79.376Z" transform="translate(-58.711 -53.976)"/><path class="a" d="M95.75,236.975l-.275.65-1.5-.675-.4.925,1.25.55-.3.65-1.25-.55-.625,1.425-.85-.375,1.625-3.675Z" transform="translate(-68.85 -176.925)"/><path class="a" d="M122.625,247.525l-.2,1.475-.925-.125.55-3.975,1.3.175a2.77,2.77,0,0,1,.725.2,1.05,1.05,0,0,1,.45.325.724.724,0,0,1,.225.4,1,1,0,0,1,.025.475,1.433,1.433,0,0,1-.1.35,2.084,2.084,0,0,1-.2.3,2.655,2.655,0,0,1-.275.225,2.91,2.91,0,0,1-.375.15.848.848,0,0,1,.15.15,1.058,1.058,0,0,0,.125.175l.65,1.5-.825-.125a.361.361,0,0,1-.3-.225l-.5-1.25a.547.547,0,0,0-.075-.125.268.268,0,0,0-.15-.05Zm.075-.65.375.05a.711.711,0,0,0,.325,0,.471.471,0,0,0,.225-.1.336.336,0,0,0,.15-.175c.025-.075.05-.15.075-.25a.489.489,0,0,0-.125-.425.849.849,0,0,0-.5-.225l-.375-.05Z" transform="translate(-91.125 -183.675)"/><path class="a" d="M155.525,245.1l.1.7-1.625.225.125.925,1.25-.175.1.675-1.25.175.125.95,1.625-.225.1.7-2.55.35L153,245.425Z" transform="translate(-114.75 -183.825)"/><path class="a" d="M181.95,236.5l.275.65-1.525.65.375.85,1.15-.5.275.625-1.15.5.375.875,1.525-.65.275.65-2.375,1-1.55-3.7Z" transform="translate(-134.7 -177.375)"/><path class="a" d="M44.375,78.4l.625.4-.875,1.4.85.525L45.7,79.55l.6.375-.725,1.15L46.9,81.9l-.5.8L43,80.6Z" transform="translate(-32.25 -58.8)"/><path class="a" d="M60.85,62.372l1.05,1.05-.675.65L58.4,61.222l.925-.925a2.35,2.35,0,0,1,.6-.45,1.838,1.838,0,0,1,.525-.175.77.77,0,0,1,.475.075,1.047,1.047,0,0,1,.4.275,1.175,1.175,0,0,1,.225.3,1.736,1.736,0,0,1,.125.325.947.947,0,0,1,0,.375,2.083,2.083,0,0,1-.1.375c.075-.025.125-.025.2-.05a.692.692,0,0,1,.225.025l1.575.4-.6.6a.348.348,0,0,1-.375.1l-1.3-.35a.159.159,0,0,0-.15,0c-.05,0-.1.05-.15.1ZM60.4,61.9l.275-.275a1.442,1.442,0,0,0,.2-.25.451.451,0,0,0,.05-.25.73.73,0,0,0-.05-.225.389.389,0,0,0-.15-.2.533.533,0,0,0-.4-.175.734.734,0,0,0-.475.275l-.3.275Z" transform="translate(-43.8 -44.747)"/><path class="a" d="M88.875,45.325l-.625.35a.336.336,0,0,1-.2.05.27.27,0,0,1-.175-.075l-.55-.475L86,45.925l.15.725a.488.488,0,0,1-.025.175c-.025.075-.075.1-.15.15l-.625.35-.65-4.25.825-.475Zm-2.975-.05.95-.55-.875-.775c-.05-.05-.125-.1-.2-.175l-.225-.225c.025.1.05.225.075.325s.025.175.05.25Z" transform="translate(-63.525 -31.95)"/><path class="a" d="M110.972,34.925a1.256,1.256,0,0,0,.325-.125,2.2,2.2,0,0,0,.25-.15l-.15-.575-.375.1a.159.159,0,0,1-.15,0c-.05-.025-.075-.05-.075-.1l-.125-.5,1.375-.375.425,1.625a2.736,2.736,0,0,1-.25.275l-.3.225a1.306,1.306,0,0,1-.375.175c-.125.05-.275.1-.425.15a1.848,1.848,0,0,1-.825.05,2.07,2.07,0,0,1-.725-.25,1.647,1.647,0,0,1-.575-.525,2.064,2.064,0,0,1-.35-.75,2.417,2.417,0,0,1-.075-.825,1.483,1.483,0,0,1,.25-.725,1.647,1.647,0,0,1,.525-.575,2.148,2.148,0,0,1,.8-.375,1.57,1.57,0,0,1,.475-.075h.425l.375.075a1.256,1.256,0,0,1,.325.125l-.15.475c-.025.05-.025.075-.075.1a.13.13,0,0,1-.1.05c-.05.025-.125,0-.175,0a.73.73,0,0,0-.225-.05,1.025,1.025,0,0,0-.45,0,1.1,1.1,0,0,0-.25.05,1.678,1.678,0,0,0-.425.2.954.954,0,0,0-.275.35,1.189,1.189,0,0,0-.125.45,1.872,1.872,0,0,0,.05.525,1.667,1.667,0,0,0,.225.525,1.549,1.549,0,0,0,.35.35,1.231,1.231,0,0,0,.425.15A1.471,1.471,0,0,0,110.972,34.925Z" transform="translate(-81.422 -23.7)"/><path class="a" d="M138.15,30.825V32.3h-.925l-.025-4h1.3a3.3,3.3,0,0,1,.75.075,1.341,1.341,0,0,1,.5.25.817.817,0,0,1,.275.375,1.462,1.462,0,0,1,.1.475,1.93,1.93,0,0,1-.05.375.775.775,0,0,1-.15.325,2.489,2.489,0,0,1-.25.275,1.594,1.594,0,0,1-.35.2.76.76,0,0,1,.175.125,1.088,1.088,0,0,1,.15.175l.875,1.375h-.85a.317.317,0,0,1-.325-.175L138.675,31c-.025-.05-.075-.1-.1-.1a.371.371,0,0,0-.175-.025Zm0-.625h.375a1.266,1.266,0,0,0,.325-.05.655.655,0,0,0,.225-.125.544.544,0,0,0,.125-.2.411.411,0,0,0,.025-.25.438.438,0,0,0-.175-.4.82.82,0,0,0-.525-.15h-.375Z" transform="translate(-102.9 -21.225)"/><path class="a" d="M164.725,35.9l-.7-.175c-.075-.025-.15-.05-.175-.1a.227.227,0,0,1-.075-.175l-.05-.725-1.475-.375-.4.625a.23.23,0,0,1-.15.1.274.274,0,0,1-.2,0l-.7-.175,2.5-3.5.925.225ZM162.6,33.775l1.05.275-.075-1.15a.938.938,0,0,0-.025-.25c0-.1-.025-.2-.025-.325a1.032,1.032,0,0,1-.175.275l-.15.225Z" transform="translate(-120.6 -23.55)"/><path class="a" d="M189.575,40.3c.025.025.05.025.05.05a.092.092,0,0,1,.025.075c0,.025.025.05.025.1l.45,3.025a1.486,1.486,0,0,1,.1-.2,1.087,1.087,0,0,1,.1-.175l1.05-1.85.7.4-2,3.475-.425-.25a.663.663,0,0,1-.15-.125,1.219,1.219,0,0,1-.075-.175l-.45-3a21464.93,21464.93,0,0,0-.2.35L187.7,43.875l-.7-.4L188.975,40l.425.25C189.525,40.275,189.55,40.275,189.575,40.3Z" transform="translate(-140.25 -30)"/><path class="a" d="M214.106,63.25l.05.05c0,.025.025.05.025.075V63.9a1.617,1.617,0,0,1-.775-.075,1.9,1.9,0,0,1-.725-.5,2.231,2.231,0,0,1-.475-.675,1.536,1.536,0,0,1-.125-.725,1.818,1.818,0,0,1,.175-.725,2.074,2.074,0,0,1,.475-.675,1.965,1.965,0,0,1,.675-.475,2.006,2.006,0,0,1,.75-.15,2.133,2.133,0,0,1,.775.15,2.173,2.173,0,0,1,.7.475,3.166,3.166,0,0,1,.275.325,1.594,1.594,0,0,1,.2.35,1.842,1.842,0,0,1,.1.35,1.538,1.538,0,0,1,.025.325l-.525.075h-.1a.19.19,0,0,1-.1-.05c-.025-.025-.05-.05-.05-.075s-.025-.075-.025-.1c0-.05-.025-.075-.025-.125a.355.355,0,0,0-.05-.15,1.433,1.433,0,0,0-.1-.175c-.05-.05-.1-.125-.175-.2a.979.979,0,0,0-.4-.25,1.27,1.27,0,0,0-.425-.075,1.019,1.019,0,0,0-.45.125,1.289,1.289,0,0,0-.425.325,1.7,1.7,0,0,0-.325.45,1.518,1.518,0,0,0-.125.45,1.27,1.27,0,0,0,.075.425,1.049,1.049,0,0,0,.225.35c.05.05.125.1.175.15a.4.4,0,0,0,.175.1c.05.025.125.05.175.075a.487.487,0,0,0,.2.025.092.092,0,0,1,.075.025C214.056,63.225,214.081,63.25,214.106,63.25Z" transform="translate(-159.056 -44.925)"/><path class="a" d="M231.025,81.1l-.6.375-.875-1.4-.8.5.675,1.075-.575.35-.675-1.075-.8.5.875,1.4-.6.375L226.3,81l3.4-2.1Z" transform="translate(-169.725 -59.175)"/></svg>