<?xml version="1.0" encoding="UTF-8" standalone="no"?>
<svg
   xmlns:dc="http://purl.org/dc/elements/1.1/"
   xmlns:cc="http://creativecommons.org/ns#"
   xmlns:rdf="http://www.w3.org/1999/02/22-rdf-syntax-ns#"
   xmlns:svg="http://www.w3.org/2000/svg"
   xmlns="http://www.w3.org/2000/svg"
   viewBox="0 0 5291.3335 5291.3335"
   height="5291.3335"
   width="5291.3335"
   xml:space="preserve"
   id="svg2"
   version="1.1"><metadata
     id="metadata8"><rdf:RDF><cc:Work
         rdf:about=""><dc:format>image/svg+xml</dc:format><dc:type
           rdf:resource="http://purl.org/dc/dcmitype/StillImage" /></cc:Work></rdf:RDF></metadata><defs
     id="defs6" /><g
     transform="matrix(1.3333333,0,0,-1.3333333,0,5291.3333)"
     id="g10"><g
       transform="scale(0.1)"
       id="g12"><g
         transform="scale(2.43466)"
         id="g14"><path
           id="path16"
           style="fill:#ffffff;fill-opacity:1;fill-rule:nonzero;stroke:none"
           d="M 16300,0 H 0 V 16300 H 16300 V 0" /></g><g
         transform="scale(1.99991)"
         id="g18"><path
           id="path20"
           style="fill:#7fb9e7;fill-opacity:1;fill-rule:nonzero;stroke:none"
           d="m 16300,9921.71 c 0,-3522.61 -2855.6,-6378.25 -6378.29,-6378.25 -3522.61,0 -6378.26,2855.64 -6378.26,6378.25 0,3522.59 2855.65,6378.19 6378.26,6378.19 3522.69,0 6378.29,-2855.6 6378.29,-6378.19" /></g><g
         transform="scale(1.96603)"
         id="g22"><path
           id="path24"
           style="fill:none;stroke:#ffffff;stroke-width:110.6989975;stroke-linecap:butt;stroke-linejoin:miter;stroke-miterlimit:10;stroke-dasharray:none;stroke-opacity:1"
           d="m 16300,10092.7 c 0,-3428.21 -2779.1,-6207.31 -6207.3,-6207.31 -3428.21,0 -6207.31,2779.1 -6207.31,6207.31 0,3428.2 2779.1,6207.2 6207.31,6207.2 3428.2,0 6207.3,-2779 6207.3,-6207.2 z" /></g><g
         transform="scale(1.65216)"
         id="g26"><path
           id="path28"
           style="fill:none;stroke:#ffffff;stroke-width:131.72900391;stroke-linecap:butt;stroke-linejoin:miter;stroke-miterlimit:10;stroke-dasharray:none;stroke-opacity:1"
           d="m 16300,12010 c 0,-2369.28 -1920.6,-4289.86 -4290,-4289.86 -2369.16,0 -4289.86,1920.58 -4289.86,4289.86 0,2369.2 1920.7,4289.9 4289.86,4289.9 2369.4,0 4290,-1920.7 4290,-4289.9 z" /></g><g
         transform="scale(1.82709)"
         id="g30"><path
           id="path32"
           style="fill:#ffffff;fill-opacity:1;fill-rule:nonzero;stroke:none"
           d="m 16300,10722.6 c 0,-150.2 -121.8,-272 -272,-272 -150.2,0 -272,121.8 -272,272 0,150.3 121.8,272.1 272,272.1 150.2,0 272,-121.8 272,-272.1" /></g><g
         transform="scale(1.2324)"
         id="g34"><path
           id="path36"
           style="fill:#ffffff;fill-opacity:1;fill-rule:nonzero;stroke:none"
           d="m 8740.31,15896.7 c 0,-222.7 -180.54,-403.3 -403.2,-403.3 -222.73,0 -403.3,180.6 -403.3,403.3 0,222.8 180.57,403.3 403.3,403.3 222.66,0 403.2,-180.5 403.2,-403.3" /></g><g
         transform="scale(1.46739)"
         id="g38"><path
           id="path40"
           style="fill:#ffffff;fill-opacity:1;fill-rule:nonzero;stroke:none"
           d="m 6496.19,15341.6 71.37,203.3 480.11,-168.6 193.75,551.9 -480.04,168.6 71.35,203.2 1154.84,-405.6 -71.42,-203.2 -486.65,170.9 -193.81,-551.9 486.65,-170.9 -71.35,-203.2 -1154.8,405.5" /></g><g
         transform="scale(1.59214)"
         id="g42"><path
           id="path44"
           style="fill:#ffffff;fill-opacity:1;fill-rule:nonzero;stroke:none"
           d="m 7264.81,15391.1 -816.89,-29.8 122.1,201.6 588.96,11.2 -260.34,531.3 117.89,194.6 347.83,-735.2 384.51,-233 -103.69,-171.1 -380.37,230.4" /></g><g
         transform="scale(1.67264)"
         id="g46"><path
           id="path48"
           style="fill:#ffffff;fill-opacity:1;fill-rule:nonzero;stroke:none"
           d="m 7582.63,15706.6 c 96.14,105.7 97.15,225.2 14.35,300.6 l -2.27,2.1 c -93.03,84.7 -202.79,62 -297.91,-42.5 l -147.91,-162.5 285.83,-260.2 z m -688.01,73.6 285.47,313.6 c 169.56,186.4 380.54,206.2 540.47,60.6 l 2.27,-2.1 c 178.1,-162.1 140.8,-389.8 -18.47,-564.8 l -143.73,-158 255.23,-232.2 -127.23,-139.8 -794.01,722.7" /></g><g
         transform="scale(1.76121)"
         id="g50"><path
           id="path52"
           style="fill:#ffffff;fill-opacity:1;fill-rule:nonzero;stroke:none"
           d="m 8325.53,15886.8 -1.7,2.4 c -115.38,161 -328.69,210.7 -493.52,92.6 -164.89,-118.1 -185.73,-332 -70.36,-493.1 l 1.71,-2.3 c 115.38,-161.1 327.78,-209.6 492.67,-91.5 164.83,118.1 186.58,330.8 71.2,491.9 z m -715.19,-512.4 -1.7,2.4 c -167.16,233.2 -126.85,557.8 128.15,740.5 254.99,182.7 571.2,117.2 738.36,-116.1 l 1.7,-2.4 c 167.1,-233.3 126.85,-557.9 -128.15,-740.6 -255.05,-182.7 -571.26,-117.1 -738.36,116.2" /></g><g
         transform="scale(1.81374)"
         id="g54"><path
           id="path56"
           style="fill:#ffffff;fill-opacity:1;fill-rule:nonzero;stroke:none"
           d="m 9020.25,15780 -314.11,296 0.5,-431.1 z m -467.93,456.2 148.37,63.8 795.2,-743.3 -169.15,-72.9 -186.96,179.8 -430.71,-185.4 0.82,-259.9 -163.97,-70.7 6.4,1088.6" /></g><g
         transform="scale(1.84541)"
         id="g58"><path
           id="path60"
           style="fill:#ffffff;fill-opacity:1;fill-rule:nonzero;stroke:none"
           d="m 9266.96,16264.4 167.49,35.6 170.21,-799.6 501.24,106.7 32.4,-152.3 -668.79,-142.3 -202.55,951.9" /></g><g
         transform="scale(1.86192)"
         id="g62"><path
           id="path64"
           style="fill:#ffffff;fill-opacity:1;fill-rule:nonzero;stroke:none"
           d="m 10164.9,16294 169.6,6 28.8,-809.7 507.6,18.1 5.5,-154.3 -677.3,-24.1 -34.2,964" /></g><g
         transform="scale(1.86158)"
         id="g66"><path
           id="path68"
           style="fill:#ffffff;fill-opacity:1;fill-rule:nonzero;stroke:none"
           d="m 11166.5,16300 709,-103 -21.8,-150 -540.9,78.6 -36.1,-248.3 479.5,-69.6 -21.8,-150 -479.4,69.7 -37.3,-256.5 547.8,-79.6 -21.8,-150 -715.8,104 138.6,954.7" /></g><g
         transform="scale(1.8399)"
         id="g70"><path
           id="path72"
           style="fill:#ffffff;fill-opacity:1;fill-rule:nonzero;stroke:none"
           d="m 12613.4,15703.5 c 116,-40.6 211,-5.8 243.7,87.6 l 0.9,2.7 c 34.5,98.7 -17.8,177.5 -137.7,219.5 l -236,82.5 -108.2,-309.2 z m -239.7,596.5 411.3,-143.9 c 116.1,-40.6 195,-106.6 234.1,-185.3 31.3,-67.1 35,-145.2 6.9,-225.5 l -0.9,-2.6 c -53,-151.4 -175.7,-210.4 -316.4,-202.5 l 127.1,-435.9 -192.5,67.3 -114.4,400.5 -203,71 -112.4,-321.2 -162.1,56.8 322.3,921.3" /></g><g
         transform="scale(1.78349)"
         id="g74"><path
           id="path76"
           style="fill:#ffffff;fill-opacity:1;fill-rule:nonzero;stroke:none"
           d="m 13599,15965.5 1.4,2.5 c 146.9,240.7 455.7,332 715.2,173.7 150.1,-91.5 216.9,-189.6 259.7,-318.5 l -165.6,-55.7 c -31.9,97 -75.4,172.4 -184.9,239.1 -158.6,96.8 -363.8,31.6 -464.2,-133 l -1.5,-2.5 c -107.9,-176.8 -70.4,-378.3 105.4,-485.5 81.2,-49.6 170.7,-68.8 247.6,-61.8 l 98.1,160.9 -220.1,134.3 80.1,131.4 366.6,-223.5 -220.3,-361.1 c -129.1,-20.7 -288.3,-7.8 -440.8,85.2 -269.4,164.3 -329.6,463.9 -176.7,714.5" /></g><g
         transform="scale(1.71281)"
         id="g78"><path
           id="path80"
           style="fill:#ffffff;fill-opacity:1;fill-rule:nonzero;stroke:none"
           d="m 15599.9,16300 569.1,-531.4 -112.4,-120.5 -434.3,405.5 -186,-199.2 384.9,-359.5 -112.5,-120.4 -384.9,359.4 -192.2,-205.8 439.8,-410.6 -112.5,-120.4 -574.6,536.5 715.6,766.4" /></g><g
         transform="scale(1.78306)"
         id="g82"><path
           id="path84"
           style="fill:#ffffff;fill-opacity:1;fill-rule:nonzero;stroke:none"
           d="m 15791.4,14857.3 95,-134 -255.4,-843.7 568.1,402.9 100.9,-142.2 -821.6,-582.8 -85.9,121.1 262.7,868.3 -584.5,-414.6 -100.9,142.3 821.6,582.7" /></g><g
         transform="scale(1.81179)"
         id="g86"><path
           id="path88"
           style="fill:#ffffff;fill-opacity:1;fill-rule:nonzero;stroke:none"
           d="m 16222.1,13563 77.9,-156.1 -887,-442.6 -77.8,156.1 886.9,442.6" /></g><g
         transform="scale(1.85485)"
         id="g90"><path
           id="path92"
           style="fill:#ffffff;fill-opacity:1;fill-rule:nonzero;stroke:none"
           d="m 15610.8,12640.7 2.7,0.8 c 261.6,85.4 540,-40.9 631.1,-320.2 55.4,-169.9 29.7,-291.9 -25.6,-407.6 l -153.6,65 c 44.3,96.1 64.5,190.1 30.2,295.5 -57.2,175.1 -243.9,257 -424.1,198.3 l -2.7,-0.8 c -180.1,-58.8 -284.4,-234.2 -226.8,-410.6 36.9,-113.3 105.3,-171.2 204.7,-226.2 l -71.3,-138.4 c -131.3,63.6 -228.7,148.4 -285,320.9 -87.7,268.7 56.1,537.1 320.4,623.3" /></g><g
         transform="scale(1.07625)"
         id="g94"><path
           id="path96"
           style="fill:#ffffff;fill-opacity:1;fill-rule:nonzero;stroke:none"
           d="m 10695.1,16300 84.6,-281.3 -664.3,-199.7 229.8,-763.7 664.3,199.9 84.6,-281.3 -1598.03,-480.7 -84.55,281.2 673.48,202.6 -229.91,763.6 -673.41,-202.6 -84.63,281.3 1598.05,480.7" /></g><path
         id="path98"
         style="fill:#ffffff;fill-opacity:1;fill-rule:nonzero;stroke:none"
         d="m 11384.3,14808.3 606.1,1151.7 181.7,-328.3 -451.2,-822.3 940,-61.4 175.4,-317 -1291,102.2 -626.4,-346.5 -154.2,278.8 619.6,342.8" /><path
         id="path100"
         style="fill:#ffffff;fill-opacity:1;fill-rule:nonzero;stroke:none"
         d="m 12685.4,13178.7 c 154.8,-182.1 353,-209.2 495.7,-87.9 l 3.9,3.3 c 160.3,136.3 146.1,323.2 -7,503.4 l -238,279.9 -492.6,-418.7 z m 268.8,1125.7 459.4,-540.4 c 272.9,-321.1 260.9,-675.3 -14.7,-909.7 l -3.9,-3.3 c -306.9,-260.9 -676.9,-150.4 -933.2,151.1 l -231.4,272.1 -439.8,-373.9 -204.7,240.8 1368.3,1163.3" /><path
         id="path102"
         style="fill:#ffffff;fill-opacity:1;fill-rule:nonzero;stroke:none"
         d="m 14615.5,11487.6 3.1,4.1 c 211.6,277.4 185.2,662.2 -98.8,878.8 -284,216.7 -654.9,141.4 -866.5,-136 l -3.1,-4.1 c -211.7,-277.5 -183.7,-660.2 100.3,-876.8 284,-216.7 653.3,-143.5 865,134 z m -1232,939.8 3.1,4 c 306.6,401.9 873.9,501.6 1313.1,166.5 439.3,-335 492.1,-901.3 185.5,-1303.2 l -3.1,-4.1 c -306.5,-401.8 -873.8,-501.6 -1313.1,-166.5 -439.2,335.1 -492.1,901.4 -185.5,1303.3" /><g
         transform="scale(1.00707)"
         id="g104"><path
           id="path106"
           style="fill:#ffffff;fill-opacity:1;fill-rule:nonzero;stroke:none"
           d="m 15992.9,10432.4 14.8,777.1 -574.5,-522.2 z m 42.4,1176.1 264.7,-120.7 -29.7,-1960.19 -301.9,137.52 13.7,466.87 -768.5,350.3 -345.8,-315.7 -292.5,133.2 1460,1308.7" /></g><g
         transform="scale(1.11808)"
         id="g108"><path
           id="path110"
           style="fill:#ffffff;fill-opacity:1;fill-rule:nonzero;stroke:none"
           d="m 15501.4,10018.3 275.6,-63.1 -301.4,-1315.3 824.4,-188.8 -57.3,-250.52 -1100,251.95 358.7,1565.77" /></g><g
         transform="scale(1.22602)"
         id="g112"><path
           id="path114"
           style="fill:#ffffff;fill-opacity:1;fill-rule:nonzero;stroke:none"
           d="m 15332.5,8889.75 257.5,-12.72 -60.5,-1228.94 770.5,-37.93 -11.6,-234.09 -1027.9,50.57 72,1463.11" /></g><g
         transform="scale(1.34134)"
         id="g116"><path
           id="path118"
           style="fill:#ffffff;fill-opacity:1;fill-rule:nonzero;stroke:none"
           d="m 15127.2,8091.4 985.5,132.04 28,-208.53 -752,-100.79 46.3,-345.03 666.5,89.31 27.9,-208.52 -666.5,-89.39 47.7,-356.44 761.4,102.07 28,-208.53 -995,-133.37 -177.8,1327.18" /></g><g
         transform="scale(1.46725)"
         id="g120"><path
           id="path122"
           style="fill:#ffffff;fill-opacity:1;fill-rule:nonzero;stroke:none"
           d="m 15616,7160.39 c 145.8,50.03 212.4,157.92 172.2,275.35 l -1.2,3.34 c -42.5,123.97 -155.3,161.11 -306,109.39 l -296.6,-101.69 133.4,-388.69 z m -698.9,401.71 516.9,177.34 c 145.7,50.02 274.8,46.2 374.3,-0.96 82.9,-41.84 147.2,-115.93 181.8,-216.8 l 1.2,-3.34 c 65.2,-190.22 -10,-343.57 -154.8,-444.98 l 463.5,-330.89 -241.9,-83.01 -423.4,305.88 -255.1,-87.58 138.5,-403.55 -203.8,-69.86 -397.2,1157.75" /></g><g
         transform="scale(1.57652)"
         id="g124"><path
           id="path126"
           style="fill:#ffffff;fill-opacity:1;fill-rule:nonzero;stroke:none"
           d="m 15175.2,6897.3 -1.7,2.79 c -165.2,272.82 -96.1,630.57 198.1,808.75 170.1,103.07 303.3,119.06 455.1,94.95 l -30.3,-195.36 c -114.1,18.45 -212.4,14.08 -336.5,-61.09 -179.9,-108.97 -221.2,-349 -108.3,-535.55 l 1.8,-2.79 c 121.4,-200.44 343.2,-267.8 542.5,-146.97 92.1,55.7 158,135.62 191,216.43 l -110.5,182.36 -249.5,-151.15 -90.3,148.93 415.5,251.7 247.9,-409.26 c -46.4,-140.37 -142.3,-293.62 -315.2,-398.35 -305.3,-184.9 -637.6,-89.37 -809.6,194.61" /></g><g
         transform="scale(1.67683)"
         id="g128"><path
           id="path130"
           style="fill:#ffffff;fill-opacity:1;fill-rule:nonzero;stroke:none"
           d="m 14982.8,7583.6 582.5,541.44 114.6,-123.33 -444.5,-413.1 189.6,-203.95 394,366.1 114.5,-123.26 -394,-366.17 195.8,-210.76 450.1,418.35 114.6,-123.26 -588.3,-546.63 -728.9,784.57" /></g><g
         transform="scale(1.75822)"
         id="g132"><path
           id="path134"
           style="fill:#ffffff;fill-opacity:1;fill-rule:nonzero;stroke:none"
           d="m 14950.7,7861.81 96.7,135.71 893.3,36.51 -575.2,409.85 102.6,144 831.9,-592.75 -87.4,-122.63 -919.2,-37.7 591.9,-421.74 -102.6,-144.01 -832,592.76" /></g><g
         transform="scale(1.7858)"
         id="g136"><path
           id="path138"
           style="fill:#ffffff;fill-opacity:1;fill-rule:nonzero;stroke:none"
           d="m 15320.6,8661.25 78.7,158.53 900.7,-447.53 -78.8,-158.52 -900.6,447.52" /></g><g
         transform="scale(1.82753)"
         id="g140"><path
           id="path142"
           style="fill:#ffffff;fill-opacity:1;fill-rule:nonzero;stroke:none"
           d="m 15609.5,8622.09 -2.7,0.82 c -266,85.36 -419.8,354.79 -328.7,638.62 55.5,172.69 149.1,257.83 263.4,320.1 l 87.8,-144.78 c -93.6,-52.7 -166.2,-118.03 -200.6,-225.12 -57.1,-178.11 47.8,-356.43 230.9,-415.26 l 2.7,-0.82 c 183.1,-58.77 373.1,23.48 430.8,202.9 36.9,115.13 15.1,203.33 -34,307.68 l 140.9,71.47 c 70.2,-130.34 100,-258.06 43.7,-433.43 -87.7,-273.16 -365.5,-408.42 -634.2,-322.18" /></g><g
         transform="scale(1.53626)"
         id="g144"><path
           id="path146"
           style="fill:#ffffff;fill-opacity:1;fill-rule:nonzero;stroke:none"
           d="m 12937,16300 -269.5,-428.7 c -15.4,-24.7 -1557,-2478 -1722.4,-2742.6 -214.3,-342.9 -327.5,-757.6 -327.5,-1199.5 0,-1303.5 1060.5,-2363.98 2364,-2363.98 1303.4,0 2363.8,1060.48 2363.8,2363.98 0,652.4 -329.7,1138.8 -595.3,1529.8 -47.3,72.9 -1026.4,1607.6 -1540.8,2414.1 L 12937,16300 v 0" /></g><g
         transform="scale(1.50064)"
         id="g148"><path
           id="path150"
           style="fill:#7fb9e7;fill-opacity:1;fill-rule:nonzero;stroke:none"
           d="m 11925.4,12581.5 c 37,-60.1 260.9,-308.5 552.9,-653.5 348.9,-412.4 742.5,-876.8 788.5,-929.5 84.6,-96.7 146.8,-30 273.3,223.1 175.3,350.3 536.4,1118.3 1043.9,1819.2 507.5,700.8 1268.9,1474.2 1450,1619.2 181.3,145 266,241.7 145.1,290 -120.8,48.4 -1064.5,-619 -1615.2,-1215.6 -591.2,-640.4 -1231.8,-1686.2 -1390.6,-1710.8 -127.1,-19.8 -742.5,441.8 -917,550.3 -202.6,125.8 -427,164.1 -330.9,7.6" /></g></g></g></svg>