<?xml version="1.0" encoding="UTF-8" standalone="no"?>
<svg
   xmlns:dc="http://purl.org/dc/elements/1.1/"
   xmlns:cc="http://creativecommons.org/ns#"
   xmlns:rdf="http://www.w3.org/1999/02/22-rdf-syntax-ns#"
   xmlns:svg="http://www.w3.org/2000/svg"
   xmlns="http://www.w3.org/2000/svg"
   viewBox="0 0 5291.3335 5291.3335"
   height="5291.3335"
   width="5291.3335"
   xml:space="preserve"
   id="svg2"
   version="1.1"><metadata
     id="metadata8"><rdf:RDF><cc:Work
         rdf:about=""><dc:format>image/svg+xml</dc:format><dc:type
           rdf:resource="http://purl.org/dc/dcmitype/StillImage" /></cc:Work></rdf:RDF></metadata><defs
     id="defs6"><clipPath
       id="clipPath32"
       clipPathUnits="userSpaceOnUse"><path
         id="path30"
         d="m 30299.6,19842.3 c 0,-5775 -4682.1,-10456.6 -10457.3,-10456.6 -5775,0 -10456.96,4681.6 -10456.96,10456.6 0,5775.5 4681.96,10457 10456.96,10457 5775.2,0 10457.3,-4681.5 10457.3,-10457 z" /></clipPath><clipPath
       id="clipPath50"
       clipPathUnits="userSpaceOnUse"><path
         id="path48"
         d="m 30299.6,19842.3 c 0,-5775 -4682.1,-10456.6 -10457.3,-10456.6 -5775,0 -10456.96,4681.6 -10456.96,10456.6 0,5775.5 4681.96,10457 10456.96,10457 5775.2,0 10457.3,-4681.5 10457.3,-10457 z" /></clipPath><clipPath
       id="clipPath56"
       clipPathUnits="userSpaceOnUse"><path
         id="path54"
         d="M 8694.88,26381.2 H 30989.4 V 13375.9 H 8694.88 Z" /></clipPath><clipPath
       id="clipPath80"
       clipPathUnits="userSpaceOnUse"><path
         id="path78"
         d="m 30299.6,19842.3 c 0,-5775 -4682.1,-10456.6 -10457.3,-10456.6 -5775,0 -10456.96,4681.6 -10456.96,10456.6 0,5775.5 4681.96,10457 10456.96,10457 5775.2,0 10457.3,-4681.5 10457.3,-10457 z" /></clipPath></defs><g
     transform="matrix(1.3333333,0,0,-1.3333333,0,5291.3333)"
     id="g10"><g
       transform="scale(0.1)"
       id="g12"><g
         transform="scale(2.43466)"
         id="g14"><path
           id="path16"
           style="fill:#ffffff;fill-opacity:1;fill-rule:nonzero;stroke:none"
           d="M 16300,0 H 0 V 16300 H 16300 V 0" /></g><g
         transform="scale(2.17381)"
         id="g18"><path
           id="path20"
           style="fill:#ffffff;fill-opacity:1;fill-rule:nonzero;stroke:none"
           d="m 16300,9128 c 0,-3960.98 -3211,-7171.98 -7172,-7171.98 -3960.98,0 -7172.01,3211 -7172.01,7171.98 0,3961 3211.03,7172 7172.01,7172 3961,0 7172,-3211 7172,-7172" /></g><g
         transform="scale(2.17381)"
         id="g22"><path
           id="path24"
           style="fill:none;stroke:#171717;stroke-width:39.90060043;stroke-linecap:butt;stroke-linejoin:miter;stroke-miterlimit:10;stroke-dasharray:none;stroke-opacity:1"
           d="m 16300,9128 c 0,-3960.98 -3211,-7171.98 -7172,-7171.98 -3960.98,0 -7172.01,3211 -7172.01,7171.98 0,3961 3211.03,7172 7172.01,7172 3961,0 7172,-3211 7172,-7172 z" /></g><g
         id="g26"><g
           clip-path="url(#clipPath32)"
           id="g28"><path
             id="path34"
             style="fill:#ee2331;fill-opacity:1;fill-rule:nonzero;stroke:none"
             d="m 8706.6,677.199 h 5241.8 V 13675.9 H 8706.6 V 677.199" /><g
             transform="scale(1.8589)"
             id="g36"><path
               id="path38"
               style="fill:#ee2331;fill-opacity:1;fill-rule:nonzero;stroke:none"
               d="m 13851.1,364.302 h 2819.8 V 7357 H 13851.1 V 364.302" /></g><g
             transform="scale(1.57961)"
             id="g40"><path
               id="path42"
               style="fill:#ffffff;fill-opacity:1;fill-rule:nonzero;stroke:none"
               d="M 8830.26,428.712 H 16300 V 8657.75 H 8830.26 V 428.712" /></g></g></g><g
         id="g44"><g
           clip-path="url(#clipPath50)"
           id="g46"><g
             clip-path="url(#clipPath56)"
             id="g52"><g
               transform="scale(1.61848)"
               id="g58"><path
                 id="path60"
                 style="fill:#ee2331;fill-opacity:1;fill-rule:nonzero;stroke:none"
                 d="M 5372.25,5555.22 H 8612.84 V 16300 H 5372.25 V 5555.22" /></g><g
               transform="scale(1.8589)"
               id="g62"><path
                 id="path64"
                 style="fill:#ee2331;fill-opacity:1;fill-rule:nonzero;stroke:none"
                 d="m 13849.7,7195.62 h 2821.2 V 14191.9 H 13849.7 V 7195.62" /></g><g
               transform="scale(1.61848)"
               id="g66"><path
                 id="path68"
                 style="fill:#ffffff;fill-opacity:1;fill-rule:nonzero;stroke:none"
                 d="M 8612.84,8264.49 H 15907 V 16300 H 8612.84 V 8264.49" /></g><g
               transform="scale(1.51502)"
               id="g70"><path
                 id="path72"
                 style="fill:#ee2331;fill-opacity:1;fill-rule:nonzero;stroke:none"
                 d="m 13096.6,16300 -509.9,-991.6 c -57.9,-107.9 -162,-98 -265.6,-37.7 l -369.4,199.5 275.6,-1523.6 c 57.5,-278.2 -128.5,-278.2 -220,-158.1 l -644.8,752.2 -104.6,-381.5 c -12.1,-50.8 -65.3,-103.4 -144.8,-90.7 l -815.4,178.4 214.3,-811.2 c 45.8,-180.2 81.4,-255.4 -46.2,-302.8 l -290.8,-142 1403.5,-1188.2 c 55.7,-45.3 83.8,-125.9 63.8,-198.9 l -123,-420 c 483.4,57.9 917.2,109.7 1399.9,167.8 43,0.5 114.6,-37.5 114.2,-89.2 L 12969,9723.41 h 235.3 l -37.1,1536.19 c -0.4,50.9 64.1,92.5 107.4,92 483.1,-58.1 916.1,-109.9 1399.7,-167.8 l -122.9,420 c -19.7,73 8.4,153.6 63.9,198.9 l 1404.2,1188.2 -291,142 c -128,47.4 -92.3,122.6 -46.4,302.8 l 214,811.2 -815.4,-178.4 c -79.5,-12.7 -132.8,39.9 -144.5,90.7 l -104.8,381.5 -645,-752.2 c -91.6,-120.1 -277.1,-120.1 -219.5,158.1 l 275.4,1523.6 -369.7,-199.5 c -103.6,-60.3 -207.2,-70.2 -264.8,37.7 l -511.2,991.6" /></g></g></g></g><g
         id="g74"><g
           clip-path="url(#clipPath80)"
           id="g76"><g
             transform="scale(1.8589)"
             id="g82"><path
               id="path84"
               style="fill:#ee2331;fill-opacity:1;fill-rule:nonzero;stroke:none"
               d="m 4669.53,13549.1 h 2827.56 v 7012 H 4669.53 v -7012" /></g><g
             transform="scale(1.8589)"
             id="g86"><path
               id="path88"
               style="fill:#ee2331;fill-opacity:1;fill-rule:nonzero;stroke:none"
               d="m 13862.7,13549.1 h 2827.2 v 7012 h -2827.2 v -7012" /></g><g
             transform="scale(1.8589)"
             id="g90"><path
               id="path92"
               style="fill:#ffffff;fill-opacity:1;fill-rule:nonzero;stroke:none"
               d="m 7497.09,13549.1 h 6365.61 v 7012 H 7497.09 v -7012" /></g></g></g><g
         transform="scale(2.13293)"
         id="g94"><path
           id="path96"
           style="fill:none;stroke:#171717;stroke-width:120.46800232;stroke-linecap:butt;stroke-linejoin:miter;stroke-miterlimit:10;stroke-dasharray:none;stroke-opacity:1"
           d="m 16300,9302.94 c 0,-3864.36 -3132.7,-6997.05 -6997.06,-6997.05 -3864.36,0 -6997.07,3132.69 -6997.07,6997.05 0,3864.36 3132.71,6997.06 6997.07,6997.06 3864.36,0 6997.06,-3132.7 6997.06,-6997.06 z" /></g><g
         transform="scale(1.6762)"
         id="g98"><path
           id="path100"
           style="fill:#171717;fill-opacity:1;fill-rule:nonzero;stroke:none"
           d="m 4736.19,15442.8 37.48,63.7 752.7,48.2 -322.67,681.7 37.49,63.6 909.14,-535.6 -39.79,-67.5 -789.65,465.2 311.44,-668.1 -3.06,-5.2 -735.34,-51.4 789.62,-465.2 -38.25,-64.9 -909.11,535.5" /></g><g
         transform="scale(1.75754)"
         id="g102"><path
           id="path104"
           style="fill:#171717;fill-opacity:1;fill-rule:nonzero;stroke:none"
           d="m 6240.71,16035.7 -612.95,182.3 264.85,-582.7 z m -697.43,210.1 47.18,54.2 1072.32,-311.3 -53.77,-61.8 -296.55,88.3 -389.58,-448.1 128.7,-281.4 -50.98,-58.6 -457.32,1018.7" /></g><g
         transform="scale(1.86284)"
         id="g106"><path
           id="path108"
           style="fill:#171717;fill-opacity:1;fill-rule:nonzero;stroke:none"
           d="m 6657.84,15482.8 c 51.26,41.5 90.99,87.3 119.11,137.5 28.08,50.1 44.99,101.1 50.68,153 5.74,51.9 1.02,103.4 -14.28,154.7 -15.24,51.2 -40.85,99 -76.82,143.5 l -1.66,2.1 c -35.38,43.8 -76.66,78.6 -123.84,104.6 -47.19,26 -96.9,41.9 -149.13,47.5 -52.23,5.6 -105.91,0.1 -161.1,-16.5 -55.18,-16.6 -108.43,-45.7 -159.75,-87.2 l -190.9,-154.3 516.74,-639.2 z m -802.65,490.1 245.81,198.7 c 57.6,46.6 118.1,80.1 181.33,100.4 63.19,20.3 125.62,28 187.14,23.1 61.52,-4.9 119.82,-22 174.89,-51.3 55.08,-29.3 103.66,-70 145.75,-122 l 1.72,-2.1 c 42.03,-52.1 71.77,-108.3 89.16,-168.6 17.39,-60.4 22.06,-121.2 13.96,-182.3 -8.06,-61.2 -28.56,-120.8 -61.36,-178.7 -32.8,-57.9 -78.05,-110.2 -135.71,-156.8 l -245.75,-198.7 -596.94,738.3" /></g><g
         transform="scale(1.94864)"
         id="g110"><path
           id="path112"
           style="fill:#171717;fill-opacity:1;fill-rule:nonzero;stroke:none"
           d="m 6544.3,15981.2 561.52,318.8 30.07,-53 -502.92,-285.5 177.31,-312.3 452.21,256.6 30.07,-53 -452.16,-256.6 180.49,-318 508.55,288.7 30.08,-53 -567.17,-322 -448.05,789.3" /></g><g
         transform="scale(2.00784)"
         id="g114"><path
           id="path116"
           style="fill:#171717;fill-opacity:1;fill-rule:nonzero;stroke:none"
           d="m 8131.06,16283.1 63.21,16.9 227.8,-850.9 -63.2,-16.9 -227.81,850.9" /></g><g
         transform="scale(2.03304)"
         id="g118"><path
           id="path120"
           style="fill:#171717;fill-opacity:1;fill-rule:nonzero;stroke:none"
           d="m 8482.8,16197.9 60.3,8.6 701.12,-664.6 -106.88,749.3 61.53,8.8 122.82,-861.2 -48.01,-6.9 -715.67,678.8 109.14,-765.3 -61.53,-8.8 -122.82,861.3" /></g><g
         transform="scale(2.02409)"
         id="g122"><path
           id="path124"
           style="fill:#171717;fill-opacity:1;fill-rule:nonzero;stroke:none"
           d="m 10860.6,15399.5 c -61.5,11 -116.4,32.6 -164.8,64.8 -48.4,32.2 -88,71.6 -119.1,118.1 -31,46.5 -52.4,98.7 -64.1,156.6 -11.7,57.9 -12.1,117.5 -1.2,179 l 0.5,2.4 c 10.7,60.7 31.8,116.1 63.1,166.3 31.3,50.2 69.6,92.2 114.9,126 45.3,33.8 96.3,57.7 152.9,71.8 56.5,14 116,15.5 178.3,4.4 38.5,-6.8 72.7,-16.3 102.7,-28.4 29.9,-12 57.2,-26.6 81.6,-43.6 24.5,-17 46.8,-36 67.2,-57 20.4,-20.9 39.8,-43.6 58.3,-68 l -53.8,-38.6 c -15.6,21.3 -32.3,41.6 -50,60.9 -17.7,19.1 -37.3,36.4 -58.6,51.6 -21.4,15.2 -45.3,28.5 -71.6,39.9 -26.3,11.5 -55.4,20 -87.3,25.7 -51.7,9.2 -101.3,7.8 -149.1,-4 -47.7,-11.8 -90.8,-32.2 -129.4,-61.3 -38.6,-29.1 -71.2,-65.3 -97.9,-108.7 -26.8,-43.5 -44.9,-92.2 -54.5,-146.3 l -0.5,-2.5 c -9.6,-54 -9.2,-106.3 1.3,-156.8 10.5,-50.4 28.9,-96 55,-136.5 26.2,-40.6 59.6,-74.8 100.3,-102.8 40.7,-27.9 86.8,-46.5 138.5,-55.6 62.2,-11.1 118.3,-9.2 168.3,5.6 50,14.8 100.5,40 151.7,75.7 l 35.6,-49.4 c -26.9,-18.1 -54.1,-34.1 -81.5,-48.3 -27.5,-14.1 -56.1,-25.3 -85.9,-33.6 -29.7,-8.2 -61.3,-13.2 -94.5,-14.9 -33.3,-1.7 -68.8,0.8 -106.4,7.5" /></g><g
         transform="scale(1.98841)"
         id="g126"><path
           id="path128"
           style="fill:#171717;fill-opacity:1;fill-rule:nonzero;stroke:none"
           d="m 12272.9,15658.1 -45,563.4 -396,-404.1 z m -49.1,641.9 59.8,-21.6 85.1,-983.3 -68.2,24.6 -21.6,272.7 -493.6,178.4 -191,-195.8 -64.5,23.3 694,701.7" /></g><g
         transform="scale(1.94838)"
         id="g130"><path
           id="path132"
           style="fill:#171717;fill-opacity:1;fill-rule:nonzero;stroke:none"
           d="m 13266.3,16300 55.1,-31.7 149,-996.9 393.9,684.5 56.2,-32.3 -452.8,-786.8 -43.8,25.2 -151.8,1018 -402.3,-699.1 -56.2,32.3 452.7,786.8" /></g><g
         transform="scale(1.84673)"
         id="g134"><path
           id="path136"
           style="fill:#171717;fill-opacity:1;fill-rule:nonzero;stroke:none"
           d="m 15171.3,15632.7 162.9,586.4 -549.9,-262.2 z m 187.8,667.3 52.4,-43.9 -277.4,-1025.9 -59.8,50.1 78.8,283.8 -433.2,362.8 -265.5,-127.4 -56.6,47.4 961.3,453.1" /></g><g
         transform="scale(1.85374)"
         id="g138"><path
           id="path140"
           style="fill:#171717;fill-opacity:1;fill-rule:nonzero;stroke:none"
           d="m 15483.6,14806.7 c 42.7,-50.8 89.4,-89.8 140.3,-117.1 50.9,-27.3 102.4,-43.3 154.7,-48.1 52.2,-4.8 104,0.9 155.2,17.2 51.2,16.3 98.7,43 142.8,79.9 l 2,1.7 c 43.3,36.4 77.6,78.5 102.8,126.4 25.3,47.9 40.2,98.2 44.9,150.7 4.7,52.6 -1.8,106.4 -19.6,161.6 -17.7,55.1 -47.9,108.1 -90.5,158.8 l -158.6,189 -632.6,-531.1 z m 477.4,815.6 204.2,-243.3 c 47.9,-57 82.7,-117.1 104.3,-180.3 21.5,-63.1 30.5,-125.7 26.7,-187.6 -3.8,-61.9 -19.9,-120.8 -48.3,-176.7 -28.4,-55.9 -68.4,-105.4 -119.9,-148.7 l -2,-1.7 c -51.5,-43.3 -107.4,-74.2 -167.7,-92.8 -60.4,-18.6 -121.4,-24.4 -183,-17.4 -61.6,7 -121.8,26.4 -180.6,58.3 -58.8,31.9 -112.2,76.4 -160.1,133.4 l -204.3,243.2 730.7,613.6" /></g><g
         transform="scale(1.92842)"
         id="g142"><path
           id="path144"
           style="fill:#171717;fill-opacity:1;fill-rule:nonzero;stroke:none"
           d="m 15878.6,13231.6 339.7,473.7 -580.9,-54.6 z m 388.7,538.2 32.7,-56.8 -587.5,-830.9 -37.3,64.7 164.4,229.1 -269.9,469.1 -280.7,-27.1 -35.3,61.4 1013.6,90.5" /></g><g
         transform="scale(2.02687)"
         id="g146"><path
           id="path148"
           style="fill:#171717;fill-opacity:1;fill-rule:nonzero;stroke:none"
           d="m 16300,8828.31 -115.7,-603.59 -57.6,11.05 103.6,539.9 -353.9,67.89 -92.9,-484.84 -57.6,11.05 93,484.84 -388.1,74.4 12.2,63.7 857,-164.4" /></g><g
         transform="scale(1.98702)"
         id="g150"><path
           id="path152"
           style="fill:#171717;fill-opacity:1;fill-rule:nonzero;stroke:none"
           d="m 15657.4,7662.21 564.1,42.17 -402.4,398.29 z m 642.6,45.85 -21.9,-59.69 -984.4,-80.27 25,68.04 273,20.39 180.9,492.99 -195,192.1 23.7,64.47 698.7,-698.03" /></g><g
         transform="scale(1.94657)"
         id="g154"><path
           id="path156"
           style="fill:#171717;fill-opacity:1;fill-rule:nonzero;stroke:none"
           d="m 15752.5,6973.65 c -16.8,-29.28 -28.6,-58.36 -35.7,-87.28 -7,-28.87 -8.8,-56.2 -5.5,-82.04 3.3,-25.84 12.2,-49.68 26.8,-71.46 14.7,-21.84 35.2,-40.33 61.7,-55.49 l 2.3,-1.33 c 43.8,-25.12 88.9,-28.46 135.1,-10.02 46.2,18.39 87.5,59.54 124.1,123.35 l 152.2,265.85 -312,178.62 z m -385.4,186.28 c -38.7,-67.56 -54.9,-129.57 -48.7,-185.97 6.2,-56.41 34.2,-98.89 83.9,-127.35 l 2.3,-1.29 c 48.9,-28.05 98.6,-29.28 148.8,-3.65 50.1,25.59 97.6,77.47 142.3,155.56 l 152.8,266.98 -317.6,181.86 z m 932.9,-76.45 -186,-324.88 c -25.8,-45 -54.8,-81.37 -87.2,-109.11 -32.4,-27.74 -65.7,-46.23 -99.9,-55.48 -53.2,-14.34 -104.3,-7.5 -153.2,20.5 l -2.2,1.28 c -27.1,15.51 -48.6,33.03 -64.3,52.55 -15.9,19.47 -27.7,39.92 -35.4,61.24 -7.8,21.37 -12.1,43 -13.1,64.93 -0.9,21.94 -0.2,42.69 2,62.27 -19.3,-19.78 -40.3,-37.66 -62.8,-53.58 -22.6,-15.98 -46.1,-27.59 -70.7,-34.94 -24.7,-7.29 -50,-9.91 -76.2,-7.86 -26.2,2.06 -52.8,10.79 -79.8,26.25 l -2.3,1.29 c -33,18.85 -58.8,42.69 -77.8,71.4 -18.9,28.78 -30.4,60.73 -34.6,95.97 -4.2,35.29 -1.5,73.05 8.1,113.33 9.6,40.27 26.7,81.78 51.2,124.47 l 195.7,341.83 788.5,-451.46" /></g><g
         transform="scale(1.8773)"
         id="g158"><path
           id="path160"
           style="fill:#171717;fill-opacity:1;fill-rule:nonzero;stroke:none"
           d="m 15676.4,6374.37 c -24.9,-30.69 -44.1,-62.22 -57.5,-94.61 -13.6,-32.33 -20.8,-63.76 -21.7,-94.23 -0.9,-30.42 4.6,-59.39 16.5,-86.93 11.9,-27.49 31.1,-52.04 57.7,-73.57 l 2.1,-1.7 c 49.7,-40.22 103.6,-53.64 162,-40.27 58.3,13.37 114.6,53.53 168.8,120.44 l 202.5,249.93 -330.5,267.73 z m 623.6,-6.4 -249.1,-307.41 c -36.7,-45.33 -75.6,-80.16 -116.7,-104.61 -41.2,-24.4 -82,-38.73 -122.3,-42.99 -31.6,-3.25 -63,-0.38 -94.3,8.79 -31.2,9.16 -60.1,24.5 -86.6,45.97 l -2.1,1.65 c -30.7,24.88 -53.7,52.47 -69,82.72 -15.2,30.31 -23.9,62.12 -25.8,95.41 -1.8,33.29 2.4,67.38 12.7,102.27 10.4,34.89 25.9,69.41 46.6,103.45 l -508.4,11.72 55.9,69.03 492.2,-12.46 1.7,2.07 192.3,237.42 -303.2,245.67 44,54.39 732.1,-593.09" /></g><g
         transform="scale(1.79209)"
         id="g162"><path
           id="path164"
           style="fill:#171717;fill-opacity:1;fill-rule:nonzero;stroke:none"
           d="m 16300,5784.69 -52.3,-51.34 -691.1,704.66 52.4,51.33 691,-704.65" /></g><g
         transform="scale(1.73317)"
         id="g166"><path
           id="path168"
           style="fill:#171717;fill-opacity:1;fill-rule:nonzero;stroke:none"
           d="m 15496.6,6085.2 c -42.7,-32.19 -77.1,-68.89 -103.3,-109.97 -26.2,-41.14 -44.5,-84.53 -55,-130.28 l 260.2,-15.35 -7,-80.2 -263.1,24.12 c -3.3,-53.72 3.3,-107.49 19.6,-161.5 16.5,-53.94 42.6,-104.6 78.3,-151.91 l 1.8,-2.31 c 38.1,-50.37 82.7,-91.28 133.9,-122.67 51.1,-31.39 104.5,-51.98 160,-61.79 55.5,-9.81 111.9,-8.25 169.2,4.56 57.3,12.92 111.2,38.36 161.6,76.44 50.3,38.09 89.5,82.63 117.4,133.57 27.9,50.95 44.7,104.44 50.4,160.52 5.7,56.14 0.4,112.74 -16,169.8 -16.3,57.07 -43.5,110.84 -81.6,161.21 l -1.8,2.31 c -38.1,50.43 -82.7,91.34 -133.9,122.72 -51.1,31.39 -104.4,51.99 -160,61.74 -55.5,9.86 -111.9,8.31 -169.2,-4.56 -57.3,-12.81 -111.1,-38.31 -161.5,-76.45 z m -231.5,-235.29 c 12.6,55.85 34.7,108.47 66.2,157.86 31.5,49.39 73.6,94.05 126.3,133.86 62,46.91 126.7,77.78 193.9,92.72 67.4,14.94 133.4,16.73 198,5.31 64.7,-11.43 125.8,-34.97 183.2,-70.74 57.5,-35.71 107.4,-81.53 149.5,-137.38 l 1.8,-2.31 c 42.2,-55.79 72.6,-116.6 91.2,-182.32 18.7,-65.72 24.8,-131.43 18.5,-197.15 -6.4,-65.72 -26.1,-129.07 -59.2,-190.06 -33.2,-60.93 -80.7,-114.88 -142.7,-161.78 -61.3,-46.28 -125.8,-77.03 -193.4,-92.26 -67.7,-15.23 -133.9,-17.14 -198.6,-5.71 -64.7,11.42 -125.8,34.96 -183.2,70.73 -57.5,35.78 -107.3,81.53 -149.5,137.32 -1.4,0.24 -2,0.98 -1.8,2.31 -41,54.3 -71,112.97 -90,175.92 -19,63.07 -25.7,127.11 -20.1,192.25 l -190.2,9.75 7.9,79.05 192.2,-17.37" /></g><g
         transform="scale(1.6255)"
         id="g170"><path
           id="path172"
           style="fill:#171717;fill-opacity:1;fill-rule:nonzero;stroke:none"
           d="m 15404.3,5875.43 c 58.2,29.41 116.2,47.31 173.9,53.77 57.7,6.4 113.3,0.8 166.9,-16.85 53.6,-17.66 103.2,-47.5 148.7,-89.58 45.6,-42.01 85.6,-97.26 120.1,-165.73 l 286.1,-567.76 -72.2,-36.36 -282.6,560.81 c -58.3,115.66 -132.1,190.16 -221.4,223.44 -89.3,33.34 -185.8,23.87 -289.4,-28.36 -49.1,-24.73 -89.8,-54.51 -122.1,-89.39 -32.4,-34.82 -55.2,-74.19 -68.5,-117.99 -13.3,-43.87 -16.3,-91.85 -9.2,-143.96 7.1,-52.11 25.3,-107.29 54.7,-165.61 l 286.2,-567.7 -72.2,-36.42 -282,559.39 c -34.9,69.4 -56.2,135.65 -63.5,198.65 -7.4,63 -2.6,121.38 14.4,175.21 17,53.83 45.1,102.25 84.3,145.19 39.3,43 88.5,79.42 147.8,109.25" /></g><g
         transform="scale(1.49872)"
         id="g174"><path
           id="path176"
           style="fill:#171717;fill-opacity:1;fill-rule:nonzero;stroke:none"
           d="m 15929.7,4415.97 -113.3,17.22 119.6,219.92 67.5,21.35 z m 370.3,467.2 -800.6,-253.14 -23.8,75.53 716.9,226.72 -140.8,445.25 -644.6,-203.84 -23.9,75.53 644.6,203.84 -143.4,453.32 -725,-229.26 -23.9,75.53 808.6,255.75 355.9,-1125.23" /></g><g
         transform="scale(1.27069)"
         id="g178"><path
           id="path180"
           style="fill:#171717;fill-opacity:1;fill-rule:nonzero;stroke:none"
           d="m 15237.8,6037.26 365.4,-805.55 368.4,805.15 z m 413.1,-918.87 -99.5,0.08 -647.3,1402.22 113.4,-0.07 176.6,-389.87 821.3,-0.48 177.2,389.64 107.4,-0.08 -649.1,-1401.44" /></g><g
         transform="scale(1.1318)"
         id="g182"><path
           id="path184"
           style="fill:#171717;fill-opacity:1;fill-rule:nonzero;stroke:none"
           d="m 15765.6,7498.83 c 92.4,-16.26 174.5,-45.5 246.4,-87.65 71.9,-42.15 131.1,-96.48 177.6,-162.84 46.4,-66.35 77.8,-143.31 94.1,-230.87 16.3,-87.47 14.9,-185.46 -4.3,-293.96 l -158.7,-899.09 -114.3,20.14 156.7,888.14 c 32.4,183.25 11.5,332.39 -62.6,447.52 -74.1,115.04 -193.3,187.14 -357.5,216.12 -77.7,13.69 -150.1,14.4 -217.3,2.03 -67.1,-12.28 -127.2,-38 -180.1,-77.05 -53,-38.96 -97.8,-91.53 -134.4,-157.62 -36.7,-66.09 -63.1,-145.26 -79.3,-237.59 l -158.8,-899.19 -114.3,20.24 156.3,885.93 c 19.5,109.92 52,204.28 97.7,283.18 45.7,78.81 101.3,141.9 167.1,189.25 65.8,47.27 139.7,78.82 221.9,94.54 82.1,15.73 170.1,15.38 263.8,-1.23" /></g><path
         id="path186"
         style="fill:#171717;fill-opacity:1;fill-rule:nonzero;stroke:none"
         d="m 14332.4,9719.8 c 111.6,-59.2 204,-134.9 277.2,-227 73.1,-92.2 125.2,-192.7 156.1,-301.6 30.9,-108.8 39.7,-222.7 26.3,-341.4 -13.4,-118.7 -49.7,-233.9 -108.8,-345.5 l -2.4,-4.5 c -58.4,-110.1 -133.3,-203.8 -224.9,-281.1 -91.5,-77.4 -191.4,-134.5 -299.6,-171.5 -108.3,-36.9 -221.3,-51.4 -339,-43.3 -117.7,8.1 -233.2,42.1 -346.3,102.1 -69.9,37.1 -130,76.6 -180.3,118.4 -50.2,42 -93.6,86.9 -130.1,134.8 -36.5,48 -67.9,98.5 -94.2,151.5 -26.2,53 -49.5,108.8 -70,167.3 l 127.6,41 c 16.9,-50.9 36.4,-100.3 58.6,-148.4 22.2,-47.9 49.2,-93.2 81,-135.8 31.7,-42.6 69.4,-83.1 112.9,-121.4 43.6,-38.3 94.3,-72.9 152.4,-103.7 93.7,-49.7 190.3,-78 289.6,-84.9 99.3,-6.9 195.1,5.7 287.4,37.8 92.4,32.1 177.7,81.7 256.2,148.7 78.4,67.1 143.7,149.8 195.8,248 l 2.3,4.4 c 52.1,98.3 83.8,199.2 94.9,303 11.1,103.7 4.1,202.7 -21.2,297.2 -25.2,94.4 -68.4,181.1 -129.4,260.2 -61,79.1 -138.4,143.4 -232.2,193.2 -113.1,59.9 -222.3,91.2 -327.8,93.7 -105.4,2.5 -218.5,-14.8 -339.2,-51.8 l -37.9,117.3 c 63,18.1 125.3,32.2 187,42.5 61.6,10.2 123.7,14 186.2,11.3 62.5,-2.6 126.3,-12.6 191.4,-30 65.1,-17.4 132,-44.2 200.4,-80.5" /><path
         id="path188"
         style="fill:#171717;fill-opacity:1;fill-rule:nonzero;stroke:none"
         d="m 12038.1,10494 -256.9,-1094.2 995.1,524.7 z m -296.9,-1245.3 -100,77.2 435.8,1913.5 114.1,-88 -124.5,-529.4 826.3,-637.4 480.5,254.7 108,-83.3 -1740.2,-907.3" /><path
         id="path190"
         style="fill:#171717;fill-opacity:1;fill-rule:nonzero;stroke:none"
         d="m 10471.7,10341 -83.3,91.6 317.3,1938.2 -1138.4,-1035.3 -85,93.5 1308.5,1189.9 66.3,-72.9 -324.6,-1978.9 1162.7,1057.4 85,-93.5 -1308.5,-1190" /><path
         id="path192"
         style="fill:#171717;fill-opacity:1;fill-rule:nonzero;stroke:none"
         d="m 9291.08,13757 -619.02,-938.1 1115.15,148.7 z m -708.7,-1066.1 -67.2,107 1069.88,1645.2 76.63,-121.9 -299.63,-453.9 555.26,-883.6 538.98,73.2 72.6,-115.6 -1946.52,-250.4" /><path
         id="path194"
         style="fill:#171717;fill-opacity:1;fill-rule:nonzero;stroke:none"
         d="m 9077.52,15320.7 c -46.15,113.9 -106.29,209.5 -180.41,286.8 -74.12,77.1 -155.82,134.9 -245.2,173.3 -89.38,38.3 -183.84,57.7 -283.43,58.3 -99.61,0.5 -198.76,-19.2 -297.47,-59.2 l -4.69,-1.9 c -97.12,-39.3 -181.64,-94 -253.56,-164 -71.9,-70 -127.02,-150 -165.36,-240 -38.28,-90.1 -57.58,-188.7 -57.9,-296.1 -0.26,-107.3 22.67,-218 68.81,-332 l 171.67,-423.8 1419.21,574.7 z m -1308.3,-1165 -220.98,545.7 c -51.83,128 -78.71,253.9 -80.67,377.6 -1.93,123.6 18.13,239 60.2,346 42.11,107 104.18,201.7 186.23,284 82.1,82.3 180.88,146.8 296.42,193.6 l 4.68,1.9 c 115.56,46.8 231.82,69.4 348.8,67.7 117,-1.7 227.84,-26.4 332.51,-73.9 104.69,-47.6 199.75,-116.3 285.21,-206.2 85.47,-89.9 154.13,-198.8 205.97,-326.8 l 220.97,-545.7 -1639.34,-663.9" /><g
         transform="scale(1.12213)"
         id="g196"><path
           id="path198"
           style="fill:#171717;fill-opacity:1;fill-rule:nonzero;stroke:none"
           d="m 6993.03,15816.1 -805.71,-595 978.65,-217.7 z m -920,-674.6 -23.45,110 1399.87,1048.5 26.71,-125.6 -389.94,-287.8 193.58,-909.6 473.38,-104.1 25.32,-119 -1705.47,387.6" /></g><g
         transform="scale(1.99974)"
         id="g200"><path
           id="path202"
           style="fill:#171717;fill-opacity:1;fill-rule:nonzero;stroke:none"
           d="m 16300,11146.9 c 0,-114.8 -93.1,-208 -208,-208 -114.9,0 -208,93.2 -208,208 0,114.9 93.1,208 208,208 114.9,0 208,-93.1 208,-208" /></g><g
         transform="scale(1.39306)"
         id="g204"><path
           id="path206"
           style="fill:#171717;fill-opacity:1;fill-rule:nonzero;stroke:none"
           d="m 5594.56,16001.4 c 0,-164.9 -133.69,-298.6 -298.58,-298.6 -164.91,0 -298.6,133.7 -298.6,298.6 0,164.9 133.69,298.6 298.6,298.6 164.89,0 298.58,-133.7 298.58,-298.6" /></g><g
         transform="scale(1.58145)"
         id="g208"><path
           id="path210"
           style="fill:none;stroke:#171717;stroke-width:40.61940002;stroke-linecap:butt;stroke-linejoin:miter;stroke-miterlimit:10;stroke-dasharray:none;stroke-opacity:1"
           d="m 16300,7127.33 c -1067.4,-733.25 -2360.1,-1162.41 -3753,-1162.41 -1374.4,0 -2651.2,417.84 -3710.35,1133.39" /></g><g
         transform="scale(1.85725)"
         id="g212"><path
           id="path214"
           style="fill:none;stroke:#171717;stroke-width:34.58739853;stroke-linecap:butt;stroke-linejoin:miter;stroke-miterlimit:10;stroke-dasharray:none;stroke-opacity:1"
           d="m 7503.63,15320.8 c 905.96,617.9 2000.86,979.2 3180.17,979.2 1170.3,0 2257.5,-355.8 3159.4,-965.1" /></g></g></g></svg>