<svg xmlns="http://www.w3.org/2000/svg" viewBox="0 0 72 72"><defs><style>.a{fill:#1a315b;}</style></defs><path class="a" d="M36,72A36,36,0,1,1,72,36,36.041,36.041,0,0,1,36,72ZM36,.975A35.025,35.025,0,1,0,71.025,36,35.081,35.081,0,0,0,36,.975Z"/><path class="a" d="M100.775,243.375a.863.863,0,0,0,.325.075,1.2,1.2,0,0,0,.3,0l.2-.575-.375-.125a.25.25,0,0,1-.125-.1.114.114,0,0,1,0-.125l.175-.475,1.35.475-.575,1.6-.375.075a1.88,1.88,0,0,1-.375,0,1.132,1.132,0,0,1-.4-.075,2.732,2.732,0,0,1-.425-.125,2.311,2.311,0,0,1-.725-.425,1.974,1.974,0,0,1-.475-.625,1.837,1.837,0,0,1-.175-.75,2.366,2.366,0,0,1,.125-.825,2.311,2.311,0,0,1,.425-.725,1.86,1.86,0,0,1,1.4-.65,2.8,2.8,0,0,1,.875.15,2.216,2.216,0,0,1,.425.2,1.775,1.775,0,0,1,.35.25,1.432,1.432,0,0,1,.275.275,1.864,1.864,0,0,1,.175.3l-.4.3a.191.191,0,0,1-.125.05H102.5a.523.523,0,0,1-.15-.1,1.5,1.5,0,0,0-.325-.325,1.4,1.4,0,0,0-.2-.125c-.075-.025-.15-.075-.225-.1a1.7,1.7,0,0,0-.475-.075.843.843,0,0,0-.425.125,1.316,1.316,0,0,0-.35.3,1.684,1.684,0,0,0-.25.475,1.55,1.55,0,0,0-.1.575.952.952,0,0,0,.1.475.989.989,0,0,0,.25.375A1.2,1.2,0,0,0,100.775,243.375Z" transform="translate(-74.325 -180)"/><path class="a" d="M134.9,249.075c.025.075.075.15.1.225.025-.075.075-.15.1-.225s.075-.15.1-.225l1.05-2c.025-.025.025-.05.05-.075s.05-.025.075-.05h.875l-.05,4h-.825l.025-2.3a2.158,2.158,0,0,1,.025-.375l-1.1,2.05c-.025.075-.075.1-.125.15a.471.471,0,0,1-.2.05h-.125a.588.588,0,0,1-.2-.05.256.256,0,0,1-.125-.15l-1.025-2.075a.55.55,0,0,0,.025.2v.175l-.025,2.3H132.7l.05-4h.8a.092.092,0,0,1,.075.025c.025,0,.05.025.075.05s.025.05.05.075l1,2.05A.264.264,0,0,1,134.9,249.075Z" transform="translate(-99.525 -185.025)"/><path class="a" d="M174.673,242.2a2.366,2.366,0,0,1,.125.825,1.854,1.854,0,0,1-.2.75,2.757,2.757,0,0,1-.475.625,2.441,2.441,0,0,1-.75.425,2.6,2.6,0,0,1-.85.125,2.367,2.367,0,0,1-.75-.2,2.19,2.19,0,0,1-.6-.475,2.26,2.26,0,0,1-.4-.725,1.878,1.878,0,0,1-.1-.825,1.854,1.854,0,0,1,.2-.75,2.293,2.293,0,0,1,.5-.625,2.441,2.441,0,0,1,.75-.425,2.6,2.6,0,0,1,.85-.125,2.367,2.367,0,0,1,.75.2,1.754,1.754,0,0,1,.95,1.2Zm-.9.3a1.223,1.223,0,0,0-.25-.475,1.089,1.089,0,0,0-.35-.325.755.755,0,0,0-.4-.125,1.108,1.108,0,0,0-.475.075.983.983,0,0,0-.425.225.829.829,0,0,0-.25.35,1.211,1.211,0,0,0-.075.45,1.306,1.306,0,0,0,.1.525,1.224,1.224,0,0,0,.25.475,1.337,1.337,0,0,0,.325.325.843.843,0,0,0,.425.125,1.054,1.054,0,0,0,.475-.075,1.152,1.152,0,0,0,.425-.225.829.829,0,0,0,.25-.35,1.211,1.211,0,0,0,.075-.45A1.305,1.305,0,0,0,173.773,242.5Z" transform="translate(-127.998 -180.6)"/><path class="a" d="M106.7,31.5h.075a.092.092,0,0,1,.075.025c.025,0,.05.025.075.05l2.475,1.8a1.723,1.723,0,0,0-.075-.2.588.588,0,0,1-.05-.2l-.575-2.05.8-.225,1.075,3.85-.475.125a.55.55,0,0,1-.2.025.332.332,0,0,1-.175-.075l-2.475-1.8c.025.075.05.125.075.2a.636.636,0,0,1,.05.175l.575,2.075-.775.225L106.1,31.65l.475-.125A.272.272,0,0,1,106.7,31.5Z" transform="translate(-79.575 -23.025)"/><path class="a" d="M139.85,30.325a2.073,2.073,0,0,1-.15.8,1.9,1.9,0,0,1-1.075,1.075,2.336,2.336,0,0,1-.85.15,2.243,2.243,0,0,1-.85-.15,1.9,1.9,0,0,1-1.075-1.075,2.166,2.166,0,0,1-.15-.8,2.073,2.073,0,0,1,.15-.8,1.9,1.9,0,0,1,1.075-1.075,2.483,2.483,0,0,1,1.7,0,1.9,1.9,0,0,1,1.075,1.075A1.7,1.7,0,0,1,139.85,30.325Zm-.95,0a1.662,1.662,0,0,0-.075-.525,1.043,1.043,0,0,0-.225-.4.9.9,0,0,0-.35-.25,1.462,1.462,0,0,0-.475-.1.952.952,0,0,0-.475.1.9.9,0,0,0-.35.25,1.043,1.043,0,0,0-.225.4,1.662,1.662,0,0,0-.075.525,1.95,1.95,0,0,0,.075.55,1.043,1.043,0,0,0,.225.4.9.9,0,0,0,.35.25,1.334,1.334,0,0,0,.95.025.9.9,0,0,0,.35-.25,1.043,1.043,0,0,0,.225-.4A1.521,1.521,0,0,0,138.9,30.325Z" transform="translate(-101.775 -21.225)"/><path class="a" d="M165.625,30.95c.025,0,.05.025.075.05l.05.05c.025.025.025.05.05.1l1.175,2.825a.73.73,0,0,1,.05-.225c.025-.075.025-.125.05-.2l.575-2.05.8.225-1.075,3.85-.475-.125a1.218,1.218,0,0,1-.175-.075.23.23,0,0,1-.1-.15l-1.175-2.8a.588.588,0,0,1-.05.2,1.594,1.594,0,0,1-.05.175l-.575,2.075L164,34.65l1.075-3.85.475.125A.092.092,0,0,1,165.625,30.95Z" transform="translate(-123 -23.1)"/><path class="a" d="M113.553,68.92c.05-.55.075-.975.1-1.475h10.025c-.3-.925-.525-1.75-.825-2.525-.075-.175-.475-.3-.725-.3-2.1-.025-4.2,0-6.3,0H114.8c.8-.925,1.475-1.6,2.7-1.5a19.02,19.02,0,0,0,3.925-.15c-.525-.4-1.05-.825-1.6-1.2-1.9-1.275-1.9-1.25-3.85,0-3.15,2.025-4.175,4.325-3.7,8.75a5.37,5.37,0,0,0,2.8,3.825,37.975,37.975,0,0,0,3.575,1.95,14.585,14.585,0,0,1,5.925,4.325,21.131,21.131,0,0,1,1.65,3.275.852.852,0,0,1-.025.7c-.775,1.125-1.575,2.2-2.35,3.3-.075-.025-.125-.025-.2-.05v-1.65a5.914,5.914,0,0,0-2.55-4.95c-1.45-1.025-3.1-1.8-4.65-2.7-.925-.525-1.875-1-2.775-1.575-3.55-2.2-4.75-5.45-4.375-9.5a10.233,10.233,0,0,1,4.925-8,33.083,33.083,0,0,1,2.825-1.75,1.776,1.776,0,0,1,1.5-.1,34.9,34.9,0,0,1,4.775,3.25c2.925,2.525,3.5,5.925,3.175,9.575a8.319,8.319,0,0,1-3.6,6.05.757.757,0,0,1-.975.05c-.75-.475-1.525-.875-2.325-1.325.775-.575,1.55-1.125,2.325-1.675a.588.588,0,0,1-.05-.2H119.4a22.555,22.555,0,0,0-2.6.025c-1.15.1-1.675-.7-2.525-1.5h1.45c2.275,0,4.55-.025,6.825.025.525,0,.8-.175.875-.65.1-.7.2-1.4.325-2.225C120.278,68.92,116.953,68.92,113.553,68.92Z" transform="translate(-81.928 -43.12)"/><path class="a" d="M98.75,170a8.13,8.13,0,0,1,2.9-2.925,26.953,26.953,0,0,0,5.6-6.075,30.807,30.807,0,0,1,2.125-2.65,5.641,5.641,0,0,1,3.5-1.775,3.229,3.229,0,0,1,1.025.25,3.221,3.221,0,0,1-.425.825,17.8,17.8,0,0,0-3.825,7.825c-1.275,5.05-4.6,8.075-9.525,9.45a7.132,7.132,0,0,1-5.275-.9,12.653,12.653,0,0,1-7.025-8.825,16.165,16.165,0,0,0-3.725-7.55,3.154,3.154,0,0,1-.4-.825,2.676,2.676,0,0,1,1.025-.25,7.246,7.246,0,0,1,4.725,3.175c1.425,1.85,2.85,3.725,4.375,5.5a13.175,13.175,0,0,0,2.175,1.9A7.741,7.741,0,0,1,98.75,170Z" transform="translate(-62.775 -117.426)"/><path class="a" d="M117.287,143.191c-.95.825-1.875,1.6-2.8,2.4.025.075.075.125.1.2a3.743,3.743,0,0,0,.55.05c1.85,0,3.7.075,5.55-.025,1.15-.075,1.625.525,2.1,1.475-.3.025-.525.05-.75.05-2.575,0-5.15.025-7.7-.025-.575,0-.8.2-.875.725-.075.675-.15,1.35-.225,2.125h10.075v1.45c-.225,0-.475.025-.7.025h-8.375a1.183,1.183,0,0,1-1.075-.5c-.75-1.075-1.55-2.1-2.3-3.175a1.184,1.184,0,0,1-.15-.875,9.313,9.313,0,0,1,3.525-5.15.616.616,0,0,1,.5-.1C115.612,142.266,116.462,142.741,117.287,143.191Z" transform="translate(-83.012 -106.366)"/><path class="a" d="M133.5,192.5h5.225c-.925.775-1.75,1.475-2.6,2.175C135.3,194,134.475,193.3,133.5,192.5Z" transform="translate(-100.125 -144.375)"/></svg>