<?xml version="1.0" encoding="UTF-8" standalone="no"?>
<svg
   xmlns:dc="http://purl.org/dc/elements/1.1/"
   xmlns:cc="http://creativecommons.org/ns#"
   xmlns:rdf="http://www.w3.org/1999/02/22-rdf-syntax-ns#"
   xmlns:svg="http://www.w3.org/2000/svg"
   xmlns="http://www.w3.org/2000/svg"
   viewBox="0 0 5292.6665 5292.6665"
   height="5292.6665"
   width="5292.6665"
   xml:space="preserve"
   id="svg2"
   version="1.1"><metadata
     id="metadata8"><rdf:RDF><cc:Work
         rdf:about=""><dc:format>image/svg+xml</dc:format><dc:type
           rdf:resource="http://purl.org/dc/dcmitype/StillImage" /></cc:Work></rdf:RDF></metadata><defs
     id="defs6" /><g
     transform="matrix(1.3333333,0,0,-1.3333333,0,5292.6667)"
     id="g10"><g
       transform="scale(0.1)"
       id="g12"><g
         transform="scale(2.43497)"
         id="g14"><path
           id="path16"
           style="fill:#ffffff;fill-opacity:1;fill-rule:nonzero;stroke:none"
           d="M 16300,2.05341 H 2.05341 V 16300 H 16300 V 2.05341" /></g><g
         transform="scale(2.43497)"
         id="g18"><path
           id="path20"
           style="fill:none;stroke:#171717;stroke-width:4.10683012;stroke-linecap:butt;stroke-linejoin:miter;stroke-miterlimit:10;stroke-dasharray:none;stroke-opacity:1"
           d="M 16300,2.05341 H 2.05341 V 16300 H 16300 Z" /></g><g
         transform="scale(2.04369)"
         id="g22"><path
           id="path24"
           style="fill:#4cc076;fill-opacity:1;fill-rule:nonzero;stroke:none"
           d="m 16300,9711.61 c 0,-3638.66 -2949.7,-6588.38 -6588.39,-6588.38 -3638.67,0 -6588.37,2949.72 -6588.37,6588.38 0,3638.69 2949.7,6588.39 6588.37,6588.39 3638.69,0 6588.39,-2949.7 6588.39,-6588.39" /></g><g
         transform="scale(1.99633)"
         id="g26"><path
           id="path28"
           style="fill:none;stroke:#ffffff;stroke-width:116.79100037;stroke-linecap:butt;stroke-linejoin:miter;stroke-miterlimit:10;stroke-dasharray:none;stroke-opacity:1"
           d="m 16300,9942.02 c 0,-3511.45 -2846.6,-6357.93 -6357.98,-6357.93 -3511.35,0 -6357.94,2846.48 -6357.94,6357.93 0,3511.38 2846.59,6357.88 6357.94,6357.88 3511.38,0 6357.98,-2846.5 6357.98,-6357.88 z" /></g><g
         transform="scale(1.65158)"
         id="g30"><path
           id="path32"
           style="fill:none;stroke:#ffffff;stroke-width:194.66799927;stroke-linecap:butt;stroke-linejoin:miter;stroke-miterlimit:10;stroke-dasharray:none;stroke-opacity:1"
           d="m 11982.3,12214.5 c 0,-225.3 25.3,-440.3 70.2,-647.5 2256.1,0 4085.2,1829.2 4085.2,4085.4 0,225.3 -25.5,440.3 -70.1,647.6 -2256.4,-0.1 -4085.3,-1829.2 -4085.3,-4085.5 z" /></g><g
         transform="scale(1.80436)"
         id="g34"><path
           id="path36"
           style="fill:none;stroke:#ffffff;stroke-width:178.18499756;stroke-linecap:butt;stroke-linejoin:miter;stroke-miterlimit:10;stroke-dasharray:none;stroke-opacity:1"
           d="m 11356,11022.4 c -136.2,-154.8 -283.8,-287.1 -439.7,-402.5 -1550.5,1364.3 -1701.3,3727.2 -336.9,5277.6 136.2,154.8 283.7,287.2 439.6,402.5 1422.2,-1251.5 1829.6,-3581.5 337,-5277.6 z" /></g><g
         transform="scale(1.65158)"
         id="g38"><path
           id="path40"
           style="fill:none;stroke:#ffffff;stroke-width:194.66799927;stroke-linecap:butt;stroke-linejoin:miter;stroke-miterlimit:10;stroke-dasharray:none;stroke-opacity:1"
           d="m 12052.3,12214.5 c 0,-225.3 -25.5,-440.3 -70.2,-647.5 -2256.28,0 -4085.31,1829.2 -4085.31,4085.4 0,225.3 25.49,440.3 70.11,647.6 2256.4,-0.1 4085.4,-1829.2 4085.4,-4085.5 z" /></g><g
         transform="scale(1.43749)"
         id="g42"><path
           id="path44"
           style="fill:none;stroke:#ffffff;stroke-width:223.66099548;stroke-linecap:round;stroke-linejoin:miter;stroke-miterlimit:10;stroke-dasharray:none;stroke-opacity:1"
           d="m 11188,16300 2512.9,-2950.6" /></g><g
         transform="scale(1.44801)"
         id="g46"><path
           id="path48"
           style="fill:none;stroke:#ffffff;stroke-width:222.03700256;stroke-linecap:round;stroke-linejoin:miter;stroke-miterlimit:10;stroke-dasharray:none;stroke-opacity:1"
           d="M 16262.4,16300 13666.9,13252.4" /></g><g
         transform="scale(1.57881)"
         id="g50"><path
           id="path52"
           style="fill:none;stroke:#ffffff;stroke-width:203.64100647;stroke-linecap:round;stroke-linejoin:miter;stroke-miterlimit:10;stroke-dasharray:none;stroke-opacity:1"
           d="M 12534.6,16300 V 12137.1" /></g><g
         transform="scale(1.05329)"
         id="g54"><path
           id="path56"
           style="fill:#ffffff;fill-opacity:1;fill-rule:nonzero;stroke:none"
           d="m 11717.9,15091.4 c 155.5,0 278.2,38.8 368.2,116.7 90,77.7 134.9,177.8 134.9,300 v 6.6 c 0,137.9 -45.5,241.7 -136.6,311.7 -91.1,70 -213.2,104.9 -366.5,104.9 h -476.4 v -839.9 z m -881.5,1208.6 h 916.4 c 135,0 257.3,-18.2 367,-54.8 109.5,-36.5 202.5,-89.1 278.8,-157.8 76.4,-68.5 135,-150.5 176,-245.7 40.9,-95.2 61.4,-201.3 61.4,-318.6 v -6.7 c 0,-130.7 -24.4,-245.2 -73.2,-343.6 -48.8,-98.6 -115.4,-181 -199.7,-247.4 -84.3,-66.4 -183.1,-116.8 -296.1,-151.1 -113.3,-34.4 -234.2,-51.5 -362.9,-51.5 h -462.6 v -747 h -405.1 V 16300" /></g><g
         transform="scale(1.05436)"
         id="g58"><path
           id="path60"
           style="fill:#ffffff;fill-opacity:1;fill-rule:nonzero;stroke:none"
           d="m 14364.6,14883.6 -401.4,928.8 -398,-928.8 z m -583.8,1416.4 h 378.1 l 1021.7,-2338.5 h -431.2 l -235.6,560.6 H 13416 l -238.9,-560.6 h -418 l 1021.7,2338.5" /></g><g
         transform="scale(1.12978)"
         id="g62"><path
           id="path64"
           style="fill:#ffffff;fill-opacity:1;fill-rule:nonzero;stroke:none"
           d="m 15397.9,14122.3 c 136.5,0 245.2,32.5 326,97.8 80.7,65.4 121.1,154 121.1,265.8 v 6.3 c 0,118.1 -39.3,207.7 -118,268.9 -78.7,61.2 -189.5,91.6 -332.3,91.6 h -555.8 v -730.4 z m -936.7,1074.1 h 965.9 c 136.1,0 256.9,-19 362.2,-57.3 105.2,-38.2 192.8,-91.3 263,-159.4 57.8,-59.9 102.3,-128.9 133.2,-207.4 30.9,-78.5 46.4,-165.1 46.4,-260 v -6.3 c 0,-88.7 -12.9,-168.6 -38.6,-239.8 -25.9,-71.2 -61.5,-134.1 -106.9,-188.8 -45.4,-54.8 -99.6,-101.2 -162.5,-139.4 -62.9,-38.2 -132.7,-67.6 -209,-88.2 l 585.1,-820.3 h -448.9 l -534,755.3 h -6.2 -472 v -755.3 h -377.7 v 2166.9" /></g><g
         transform="scale(1.29585)"
         id="g66"><path
           id="path68"
           style="fill:#ffffff;fill-opacity:1;fill-rule:nonzero;stroke:none"
           d="m 15636.1,12110 -326.6,755.7 -323.9,-755.7 z m -475,1152.4 h 307.6 l 831.3,-1902.6 h -350.9 l -191.6,456 h -893.3 l -194.3,-456 h -340.1 l 831.3,1902.6" /></g><g
         transform="scale(1.4411)"
         id="g70"><path
           id="path72"
           style="fill:#ffffff;fill-opacity:1;fill-rule:nonzero;stroke:none"
           d="m 15677.3,10479.3 c 101.6,0 181.4,19.4 239.6,58.3 58,38.8 87,97.1 87,174.6 v 5 c 0,72.7 -28.7,128.9 -85.8,168.5 -57.4,39.7 -144.9,59.5 -262.6,59.5 h -471.8 v -465.9 z m -87.2,718.3 c 96.7,0 174.1,19 232.1,57.1 58,37.9 87.1,95.8 87.1,173.5 v 4.8 c 0,68 -25.4,121 -76.2,159 -50.8,38 -124.6,57 -221.3,57 h -428.1 v -451.4 z m -702.5,716 h 760.6 c 195.4,0 343.2,-50.2 443.3,-150.6 75.9,-76 113.8,-169.8 113.8,-281.4 v -4.9 c 0,-51.8 -6.8,-97.5 -20.4,-137.1 -13.6,-39.7 -31.3,-74.4 -52.9,-104.3 -21.7,-30 -47.4,-56.3 -77.1,-78.9 -29.7,-22.7 -59.7,-42.1 -90.2,-58.3 49.8,-17.8 95.2,-38.4 136.2,-61.9 41.1,-23.4 76.5,-51.3 106.3,-83.7 29.7,-32.4 52.6,-70.4 68.7,-114.1 16,-43.6 24.1,-94.6 24.1,-152.8 v -4.9 c 0,-76.1 -14.9,-143.1 -44.8,-201.4 -29.9,-58.3 -72.3,-106.8 -127.2,-145.6 -54.9,-38.8 -121.1,-68.4 -198.6,-88.6 -77.6,-20.2 -163.2,-30.3 -256.8,-30.3 h -785 v 1698.8" /></g><g
         transform="scale(1.57798)"
         id="g74"><path
           id="path76"
           style="fill:#ffffff;fill-opacity:1;fill-rule:nonzero;stroke:none"
           d="m 15140.9,10880.1 h 1148 V 10634 h -877.6 v -398.8 h 777.9 v -246.05 h -777.9 v -414.51 h 888.7 v -245.95 h -1159.1 v 1551.41" /></g><g
         transform="scale(1.73504)"
         id="g78"><path
           id="path80"
           style="fill:#ffffff;fill-opacity:1;fill-rule:nonzero;stroke:none"
           d="m 15070.4,9895.2 h 229.3 l 754.4,-975.59 V 9895.2 H 16300 V 8484.23 h -207.3 l -776.4,1003.78 V 8484.23 h -245.9 V 9895.2" /></g><g
         transform="scale(1.06488)"
         id="g82"><path
           id="path84"
           style="fill:#ffffff;fill-opacity:1;fill-rule:nonzero;stroke:none"
           d="M 14592.2,12947.8 H 16300 v -364.5 h -1307.2 v -633.8 h 1159.4 v -364.6 h -1159.4 v -936 h -400.6 v 2298.9" /></g><g
         transform="scale(1.21614)"
         id="g86"><path
           id="path88"
           style="fill:#ffffff;fill-opacity:1;fill-rule:nonzero;stroke:none"
           d="m 15461.9,10339.6 c 126.9,0 227.9,30.3 302.9,90.9 75,60.7 112.5,143 112.5,247 v 5.7 c 0,109.8 -36.5,193.1 -109.6,249.9 -73.1,56.8 -176,85.2 -308.6,85.2 h -516.4 v -678.7 z m -870.1,997.8 h 897.3 c 126.5,0 238.7,-17.7 336.4,-53.2 97.8,-35.4 179.2,-84.8 244.5,-148 53.6,-55.7 94.9,-119.9 123.6,-192.7 28.8,-72.9 43.2,-153.4 43.2,-241.6 v -5.7 c 0,-82.5 -12,-156.7 -36,-222.9 -24,-66.1 -57,-124.7 -99.2,-175.4 -42.2,-50.8 -92.5,-93.9 -151,-129.5 -58.5,-35.4 -123.2,-62.8 -194.1,-81.9 l 543.5,-762.04 h -417 l -496.1,701.74 h -5.7 -438.5 v -701.74 h -350.9 v 2012.94" /></g><g
         transform="scale(1.35066)"
         id="g90"><path
           id="path92"
           style="fill:#ffffff;fill-opacity:1;fill-rule:nonzero;stroke:none"
           d="m 14945.8,10208.2 h 1341.3 v -287.37 h -1025.4 v -466.06 h 908.8 v -287.42 h -908.8 v -484.2 H 16300 v -287.42 h -1354.2 v 1812.47" /></g><g
         transform="scale(1.48905)"
         id="g94"><path
           id="path96"
           style="fill:#ffffff;fill-opacity:1;fill-rule:nonzero;stroke:none"
           d="m 15071.6,9259.47 h 1216.7 v -260.64 h -930 v -422.75 h 824.3 v -260.71 h -824.3 v -439.2 h 941.7 v -260.71 h -1228.4 v 1644.01" /></g></g></g></svg>