<svg xmlns="http://www.w3.org/2000/svg" viewBox="0 0 72 72"><defs><style>.a{fill:#1a315b;}</style></defs><path class="a" d="M36,72A36,36,0,1,1,72,36,36.041,36.041,0,0,1,36,72ZM36,.975A35.025,35.025,0,1,0,71.025,36,35.081,35.081,0,0,0,36,.975Z"/><path class="a" d="M94.05,236.975l-.275.65-1.5-.675-.4.925,1.25.55-.3.65-1.25-.55-.625,1.425-.85-.375,1.625-3.675Z" transform="translate(-67.575 -176.925)"/><path class="a" d="M120.925,247.525l-.2,1.475-.925-.125.55-3.975,1.3.175a2.77,2.77,0,0,1,.725.2,1.05,1.05,0,0,1,.45.325.723.723,0,0,1,.225.4,1,1,0,0,1,.025.475,1.433,1.433,0,0,1-.1.35,2.085,2.085,0,0,1-.2.3,2.655,2.655,0,0,1-.275.225,2.909,2.909,0,0,1-.375.15.848.848,0,0,1,.15.15c.05.05.075.125.125.175l.65,1.5-.825-.125a.361.361,0,0,1-.3-.225l-.5-1.25a.546.546,0,0,0-.075-.125.268.268,0,0,0-.15-.05ZM121,246.9l.375.05a.711.711,0,0,0,.325,0,.471.471,0,0,0,.225-.1.336.336,0,0,0,.15-.175c.025-.075.05-.15.075-.25a.573.573,0,0,0-.1-.425.849.849,0,0,0-.5-.225l-.375-.05Z" transform="translate(-89.85 -183.675)"/><path class="a" d="M153.825,245.1l.1.7-1.625.225.125.925,1.25-.175.1.675-1.25.175.125.95,1.625-.225.1.7-2.55.35-.525-3.975Z" transform="translate(-113.475 -183.825)"/><path class="a" d="M180.25,236.5l.275.65L179,237.8l.375.85,1.15-.5.275.625-1.15.5.375.875,1.525-.65.275.65-2.375,1-1.55-3.7Z" transform="translate(-133.425 -177.375)"/><path class="a" d="M61.3,60.275l.925.975-.675.625L58.8,58.95l1.025-.975a2.216,2.216,0,0,1,.6-.425,1.217,1.217,0,0,1,.55-.15,1.119,1.119,0,0,1,.5.1,1.289,1.289,0,0,1,.425.325,1.091,1.091,0,0,1,.3.475.933.933,0,0,1,.075.525,1.744,1.744,0,0,1-.175.55,2.262,2.262,0,0,1-.45.575Zm-.475-.5.35-.325c.175-.175.275-.325.25-.475a.648.648,0,0,0-.225-.45.389.389,0,0,0-.2-.15.73.73,0,0,0-.225-.05,1.1,1.1,0,0,0-.25.05,1.518,1.518,0,0,0-.25.175l-.35.325Z" transform="translate(-44.1 -43.05)"/><path class="a" d="M87.475,45.15l-.625.35a.3.3,0,0,1-.2.05.227.227,0,0,1-.175-.075l-.55-.5-1.325.75.15.725a.488.488,0,0,1-.025.175.292.292,0,0,1-.15.15l-.625.35-.65-4.25.825-.475Zm-3-.05.95-.55-.875-.775c-.05-.05-.125-.1-.2-.175l-.225-.225c.025.1.05.225.075.325s.025.175.05.25Z" transform="translate(-62.475 -31.8)"/><path class="a" d="M108.45,34.625l.375,1.425-.9.25L106.9,32.425l1.25-.325a2.821,2.821,0,0,1,.75-.1,1.663,1.663,0,0,1,.55.1,1.107,1.107,0,0,1,.375.3,1.326,1.326,0,0,1,.2.425,1.93,1.93,0,0,1,.05.375.8.8,0,0,1-.075.35,1.347,1.347,0,0,1-.175.325,1.433,1.433,0,0,1-.275.275.653.653,0,0,1,.2.075.448.448,0,0,1,.175.125l1.175,1.125-.825.225a.392.392,0,0,1-.375-.075l-.95-.95c-.05-.05-.075-.075-.125-.075h-.175ZM108.275,34l.35-.1a.834.834,0,0,0,.3-.125,1.155,1.155,0,0,0,.175-.175.8.8,0,0,0,.075-.225.938.938,0,0,0-.025-.25.452.452,0,0,0-.275-.35.689.689,0,0,0-.55,0l-.35.1Z" transform="translate(-80.175 -24)"/><path class="a" d="M138.25,32.3h-.725a.471.471,0,0,1-.2-.05c-.05-.05-.1-.075-.1-.15l-.25-.7H135.45l-.225.7a.523.523,0,0,1-.1.15.269.269,0,0,1-.2.05H134.2l1.55-4h.95Zm-2.575-1.525h1.1l-.375-1.1c-.025-.075-.05-.15-.075-.25s-.075-.2-.1-.3a1.058,1.058,0,0,1-.1.3c-.025.1-.05.175-.075.25Z" transform="translate(-100.65 -21.225)"/><path class="a" d="M161.8,34.475l1-3.875,1.425.375a2.957,2.957,0,0,1,.675.25,1.335,1.335,0,0,1,.4.325.822.822,0,0,1,.175.4,1.366,1.366,0,0,1-.025.45,1.045,1.045,0,0,1-.1.25.674.674,0,0,1-.175.2,2.2,2.2,0,0,1-.25.15c-.1.025-.2.05-.35.075a1.115,1.115,0,0,1,.5.45.9.9,0,0,1,.05.575,1.152,1.152,0,0,1-.225.425,1.107,1.107,0,0,1-.375.3,1.162,1.162,0,0,1-.525.125,1.535,1.535,0,0,1-.65-.075Zm1.325-1.425-.25.975.625.175a.658.658,0,0,0,.3.025.284.284,0,0,0,.2-.075.256.256,0,0,0,.125-.15c.025-.05.05-.125.075-.175a.551.551,0,0,0,.025-.2.464.464,0,0,0-.05-.175.256.256,0,0,0-.15-.125.7.7,0,0,0-.275-.1Zm.15-.6.475.125a1.29,1.29,0,0,0,.275.05.692.692,0,0,0,.225-.025.289.289,0,0,0,.175-.125.471.471,0,0,0,.1-.225.938.938,0,0,0,.025-.25.227.227,0,0,0-.075-.175.663.663,0,0,0-.15-.125,2.593,2.593,0,0,0-.25-.1l-.525-.15Z" transform="translate(-121.35 -22.95)"/><path class="a" d="M189.3,41.025l-.35.625-1.45-.775-.45.825,1.1.6-.325.6-1.1-.6-.45.85,1.45.775-.35.625L185.1,43.325,187,39.8Z" transform="translate(-138.825 -29.85)"/><path class="a" d="M207.8,54.575c.025.025.025.05.05.075a.092.092,0,0,1,.025.075v.1l-.225,3.05c.05-.05.1-.125.15-.175a.663.663,0,0,0,.125-.15L209.35,56l.6.55-2.7,2.95-.35-.325c-.05-.05-.1-.1-.1-.15a.371.371,0,0,1-.025-.175L207,55.825c-.05.05-.075.1-.125.15s-.075.1-.125.15L205.3,57.7l-.6-.55,2.7-2.95.35.325A.054.054,0,0,1,207.8,54.575Z" transform="translate(-153.525 -40.65)"/><path class="a" d="M113.05,86.6V70.65h.275a.525.525,0,1,0,0-1.05h-10.3a.525.525,0,0,0,0,1.05h.275v16.1a10.006,10.006,0,0,0-6.1,8.975c0,5.55,4.975,10.075,11.15,10.075,6.15,0,11.15-4.5,11.15-10.075A10.1,10.1,0,0,0,113.05,86.6Z" transform="translate(-72.9 -52.2)"/></svg>